<?xml version="1.0" encoding="UTF-8"?>
<svg version="1.1" xmlns="http://www.w3.org/2000/svg" width="1280" height="853">
<path d="M0 0 C422.4 0 844.8 0 1280 0 C1280 281.49 1280 562.98 1280 853 C857.6 853 435.2 853 0 853 C0 571.51 0 290.02 0 0 Z " fill="#000000" transform="translate(0,0)"/>
<path d="M0 0 C2.08268689 -0.00735198 4.16536971 -0.01594146 6.24804688 -0.02566528 C11.87224255 -0.04777213 17.49629125 -0.05081737 23.12052441 -0.04891777 C27.83176972 -0.04879756 32.54298446 -0.05738245 37.2542212 -0.06569529 C48.37848618 -0.08489076 59.50267613 -0.08782739 70.62695312 -0.08105469 C82.06558127 -0.07441817 93.50388662 -0.09727177 104.94244933 -0.13436842 C114.79684218 -0.16515626 124.65113168 -0.17641557 134.5055716 -0.1725316 C140.37628816 -0.17047334 146.24675343 -0.17579996 152.11742401 -0.20042419 C157.6432849 -0.22283903 163.16862433 -0.22069176 168.69448853 -0.20049667 C170.70950992 -0.19711247 172.72456745 -0.20206232 174.7395401 -0.21648026 C198.5140621 -0.37470886 219.35690405 6.25160642 236.74951172 22.97021484 C253.24420628 40.05174541 256.62184149 61.62824024 256.53759766 84.33618164 C256.54167193 86.19890651 256.54701857 88.06162897 256.55352783 89.92434692 C256.56710458 94.94288701 256.56194321 99.9612403 256.55239058 104.9797833 C256.54474478 110.25475104 256.55185305 115.5297038 256.55654907 120.80467224 C256.5619919 129.65846602 256.55485329 138.51218448 256.54052734 147.3659668 C256.52419866 157.57482675 256.52949693 167.78350694 256.54600656 177.99236256 C256.55965748 186.78854449 256.56152365 195.58467259 256.55369055 204.3808617 C256.54903447 209.62091225 256.54833209 214.86087854 256.55830002 220.10092354 C256.56702027 225.02835176 256.56085612 229.95555004 256.54361725 234.88295364 C256.53967949 236.68195274 256.54073944 238.48097148 256.54740524 240.27996254 C256.59003022 252.96108321 255.38816664 264.51228718 250.64941406 276.41992188 C250.24722656 277.45117188 249.84503906 278.48242188 249.43066406 279.54492188 C248.18296909 282.34462766 246.89283289 284.89752868 245.14941406 287.41992188 C244.48941406 287.41992188 243.82941406 287.41992188 243.14941406 287.41992188 C242.88386719 288.00128906 242.61832031 288.58265625 242.34472656 289.18164062 C236.24000371 300.61303342 223.19988926 310.21901972 211.14941406 314.41992188 C210.15941406 314.41992188 209.16941406 314.41992188 208.14941406 314.41992188 C208.14941406 315.07992188 208.14941406 315.73992187 208.14941406 316.41992188 C206.65220584 316.90774177 205.15144043 317.3846455 203.64941406 317.85742188 C202.39644531 318.25767578 202.39644531 318.25767578 201.11816406 318.66601562 C194.59361218 320.3229084 188.10395179 320.56868742 181.41201782 320.5670929 C180.56850372 320.57076958 179.72498961 320.57444627 178.85591447 320.57823437 C176.04830513 320.58918821 173.2407329 320.59310088 170.43310547 320.59692383 C168.41189458 320.60319489 166.39068483 320.60984226 164.36947632 320.61683655 C157.74665112 320.63780779 151.12382589 320.64823439 144.50097656 320.65820312 C142.21312829 320.66225367 139.92528013 320.66637068 137.6374321 320.67055321 C126.88288617 320.68959186 116.12834704 320.70382409 105.37378752 320.71216518 C92.99811599 320.72192436 80.62262394 320.74821514 68.2470156 320.78866607 C58.65684192 320.81892647 49.06671941 320.83364354 39.47649896 320.83694619 C33.76051308 320.83928585 28.04471921 320.84810405 22.32878494 320.87340736 C16.94259914 320.89686655 11.55672938 320.90085028 6.17050552 320.89064598 C4.20750368 320.89015478 2.24448532 320.89635053 0.28153229 320.91020203 C-24.87315346 321.07759036 -44.82360203 315.87274836 -63.47558594 298.04492188 C-65.85058594 295.41992188 -65.85058594 295.41992188 -65.85058594 293.41992188 C-66.51058594 293.41992188 -67.17058594 293.41992188 -67.85058594 293.41992188 C-71.97661379 288.99507306 -74.70037185 284.03198064 -76.85058594 278.41992188 C-77.25277344 277.49953125 -77.65496094 276.57914063 -78.06933594 275.63085938 C-78.51277344 274.6125 -78.95621094 273.59414063 -79.41308594 272.54492188 C-80.03376953 271.12566406 -80.03376953 271.12566406 -80.66699219 269.67773438 C-84.35077875 259.53820305 -84.14160466 249.640653 -84.12524414 239.01123047 C-84.12959613 237.1426371 -84.1347809 235.27404551 -84.14073181 233.40545654 C-84.15408435 228.34727218 -84.15470438 223.28916272 -84.15216851 218.23096418 C-84.15109571 213.99692108 -84.15599035 209.76289294 -84.16077393 205.52885306 C-84.17185736 195.53045437 -84.17231385 185.53209326 -84.16625977 175.53369141 C-84.16022783 165.24943451 -84.17251385 154.96531469 -84.19382983 144.68108118 C-84.21150039 135.82722653 -84.2174384 126.97341529 -84.21419209 118.11954367 C-84.21238691 112.84245871 -84.21493808 107.56547142 -84.22890663 102.28840256 C-84.24156846 97.31918805 -84.23946258 92.35018542 -84.22649574 87.38097382 C-84.22414804 85.5683014 -84.22679892 83.75561368 -84.23511887 81.94295883 C-84.29429212 68.03608972 -83.79160521 54.24178725 -76.85058594 41.79492188 C-76.50769531 41.14136719 -76.16480469 40.4878125 -75.81152344 39.81445312 C-74.85194363 38.00150655 -73.85258064 36.20977531 -72.85058594 34.41992188 C-72.31433594 33.4428125 -71.77808594 32.46570313 -71.22558594 31.45898438 C-70.77183594 30.78609375 -70.31808594 30.11320312 -69.85058594 29.41992188 C-69.19058594 29.41992188 -68.53058594 29.41992188 -67.85058594 29.41992188 C-67.49287109 28.31777344 -67.49287109 28.31777344 -67.12792969 27.19335938 C-61.79128803 15.60615578 -45.22139096 7.76844207 -33.85058594 3.41992188 C-22.6733807 -0.19880918 -11.61994194 -0.0194977 0 0 Z " fill="#FC5F27" transform="translate(553.8505859375,242.580078125)"/>
<path d="M0 0 C1.94086023 1.18080199 1.94086023 1.18080199 5.15625 2.3046875 C9.91652804 4.55955605 13.66750676 7.66280215 17.71875 10.9921875 C18.32460938 11.45109375 18.93046875 11.91 19.5546875 12.3828125 C22.84445003 14.91833679 24.57114262 16.97556167 25.71875 20.9921875 C26.37875 20.9921875 27.03875 20.9921875 27.71875 20.9921875 C33.58597362 28.20338106 36.37560698 36.12351714 38.71875 44.9921875 C39.04875 45.9821875 39.37875 46.9721875 39.71875 47.9921875 C39.95797509 52.67577249 39.90394807 57.36566172 39.90625 62.0546875 C39.91849609 63.34052734 39.93074219 64.62636719 39.94335938 65.95117188 C39.95450289 73.22788814 39.53349611 79.93882308 37.71875 86.9921875 C37.49574219 87.93191406 37.27273438 88.87164062 37.04296875 89.83984375 C32.50636281 105.62055276 22.44971388 118.30886789 8.6015625 126.93359375 C-9.85986019 137.14493494 -33.65789769 137.73628028 -53.69921875 132.125 C-61.33951099 129.70876799 -67.07471112 126.00697652 -73.28125 120.9921875 C-74.25707031 120.22648437 -75.23289062 119.46078125 -76.23828125 118.671875 C-85.37857599 111.00004454 -89.97616436 100.15171194 -93.28125 88.9921875 C-93.59964844 88.09886719 -93.91804688 87.20554687 -94.24609375 86.28515625 C-99.98706104 68.21566013 -97.54071407 44.86647153 -89.09375 27.9921875 C-80.59300367 13.56998113 -67.24216812 1.33158716 -51.03125 -3.3828125 C-36.13559907 -7.04091898 -13.6011966 -7.89560989 0 0 Z " fill="#020001" transform="translate(604.28125,339.0078125)"/>
<path d="M0 0 C1.02673828 0.928125 1.02673828 0.928125 2.07421875 1.875 C2.07421875 2.535 2.07421875 3.195 2.07421875 3.875 C2.64011719 4.0709375 3.20601562 4.266875 3.7890625 4.46875 C7.00319306 6.4466765 8.6731979 9.24302127 10.63671875 12.375 C11.03366943 13.00140381 11.43062012 13.62780762 11.83959961 14.27319336 C15.95661438 20.9833872 18.07421875 26.9542192 18.07421875 34.875 C8.17421875 34.875 -1.72578125 34.875 -11.92578125 34.875 C-12.91578125 31.905 -13.90578125 28.935 -14.92578125 25.875 C-15.58578125 25.875 -16.24578125 25.875 -16.92578125 25.875 C-17.50199219 25.11703125 -18.07820312 24.3590625 -18.671875 23.578125 C-21.22474211 20.51645422 -23.40276059 19.31334926 -26.98828125 17.625 C-28.03113281 17.12484375 -29.07398438 16.6246875 -30.1484375 16.109375 C-38.21914364 12.52239449 -48.39234477 12.79980257 -56.90625 15.05859375 C-66.09243362 18.77215734 -72.3770246 26.81166166 -76.1640625 35.6640625 C-80.74689986 48.96604171 -79.80757963 67.46656568 -74.21484375 80.23828125 C-73.57675781 81.54345703 -73.57675781 81.54345703 -72.92578125 82.875 C-72.57902344 83.79410156 -72.23226562 84.71320313 -71.875 85.66015625 C-71.1269527 87.98999948 -71.1269527 87.98999948 -69.11328125 89 C-68.39140625 89.28875 -67.66953125 89.5775 -66.92578125 89.875 C-64.17578125 91.375 -64.17578125 91.375 -61.92578125 92.875 C-61.92578125 93.535 -61.92578125 94.195 -61.92578125 94.875 C-52.2580377 98.77928105 -40.46516666 99.87702686 -30.48828125 96.375 C-20.61476155 91.62108311 -16.86480569 85.75304888 -11.92578125 75.875 C-1.69578125 75.875 8.53421875 75.875 19.07421875 75.875 C16.16332495 87.51857519 12.69903121 99.04236074 4.07421875 107.875 C3.41421875 107.875 2.75421875 107.875 2.07421875 107.875 C2.07421875 108.535 2.07421875 109.195 2.07421875 109.875 C1.41421875 109.875 0.75421875 109.875 0.07421875 109.875 C0.07421875 110.535 0.07421875 111.195 0.07421875 111.875 C-2.71822432 114.17505576 -5.83826401 115.99845509 -8.92578125 117.875 C-10.06273437 118.56722656 -10.06273437 118.56722656 -11.22265625 119.2734375 C-26.35001507 127.6493241 -48.38713637 128.61154228 -64.92578125 123.875 C-69.34808127 122.43319342 -73.75947753 120.95815186 -77.92578125 118.875 C-77.92578125 118.215 -77.92578125 117.555 -77.92578125 116.875 C-79.25609375 116.50375 -79.25609375 116.50375 -80.61328125 116.125 C-86.89992827 113.75268037 -90.50475154 109.2283811 -94.48828125 104.0625 C-95.19114258 103.17594727 -95.19114258 103.17594727 -95.90820312 102.27148438 C-100.31287442 96.62241644 -103.81564328 90.92756661 -106.05078125 84.0625 C-106.51871094 82.66064453 -106.51871094 82.66064453 -106.99609375 81.23046875 C-109.44140469 72.40474564 -110.26506371 64.15960182 -110.23828125 55 C-110.25439453 53.90558594 -110.27050781 52.81117188 -110.28710938 51.68359375 C-110.29741848 34.26121032 -103.94169373 15.89298394 -91.67578125 3.25 C-88.23408165 -0.125 -88.23408165 -0.125 -85.92578125 -0.125 C-85.92578125 -0.785 -85.92578125 -1.445 -85.92578125 -2.125 C-80.17578125 -5.125 -80.17578125 -5.125 -77.92578125 -5.125 C-77.92578125 -5.785 -77.92578125 -6.445 -77.92578125 -7.125 C-53.16634053 -20.12494683 -22.2622454 -16.16910747 0 0 Z " fill="#030001" transform="translate(757.92578125,348.125)"/>
<path d="M0 0 C10.51428105 5.41026112 18.20575332 12.63772214 22.01171875 24.03515625 C23.29986802 29.59509659 23.23401671 35.0402759 23.26171875 40.72265625 C23.28234375 41.76099609 23.30296875 42.79933594 23.32421875 43.86914062 C23.3715502 53.3058492 21.96853996 61.26298213 16.13671875 68.91015625 C15.47929688 69.79445313 14.821875 70.67875 14.14453125 71.58984375 C10.9697378 75.2298084 7.92307827 78.30754743 3.01171875 79.03515625 C3.01171875 79.69515625 3.01171875 80.35515625 3.01171875 81.03515625 C-7.13069963 85.1311329 -20.13469035 86.01202786 -30.59375 82.359375 C-35.72438649 79.52204095 -40.07861444 75.36849418 -43.98828125 71.03515625 C-43.98828125 70.37515625 -43.98828125 69.71515625 -43.98828125 69.03515625 C-44.64828125 69.03515625 -45.30828125 69.03515625 -45.98828125 69.03515625 C-52.72326214 55.40483779 -54.96831818 39.81575632 -51.0625 24.890625 C-46.72731016 12.76056613 -39.68417162 5.67766778 -28.29296875 0.0859375 C-20.25880508 -3.57709645 -8.21010455 -3.36223329 0 0 Z " fill="#FC5E27" transform="translate(590.98828125,362.96484375)"/>
<path d="M0 0 C3.71268502 2.7233698 4.23999481 6.72121606 5.15614319 10.97685242 C5.32919135 11.77603519 5.50223951 12.57521797 5.68053156 13.3986184 C7.47817711 22.38856958 7.55568888 31.23555972 7.50170898 40.37036133 C7.50550404 42.23367722 7.51101376 44.09699028 7.51808167 45.96029663 C7.53189407 50.96213325 7.52096997 55.96362042 7.50437045 60.96543717 C7.49039021 66.22970151 7.49699426 71.49394822 7.50050354 76.75822449 C7.50319431 85.58814037 7.489824 94.41791942 7.46655273 103.24780273 C7.43990894 113.42721518 7.43821329 123.60639968 7.4499411 133.78583509 C7.46075064 143.62416143 7.45450957 153.46240606 7.44038582 163.30072594 C7.43465768 167.46825806 7.43468344 171.63572978 7.43945122 175.80326271 C7.44425292 180.71434159 7.43398818 185.62517334 7.41249657 190.53620529 C7.40697331 192.32875294 7.40642189 194.12132456 7.41144943 195.91387367 C7.44247852 208.57217846 6.22994367 220.11450052 1.5 232 C1.0978125 233.03125 0.695625 234.0625 0.28125 235.125 C-0.96644497 237.92470579 -2.25658118 240.47760681 -4 243 C-4.66 243 -5.32 243 -6 243 C-6.25910156 243.57492187 -6.51820313 244.14984375 -6.78515625 244.7421875 C-8.09884061 247.18369734 -9.60297053 249.04981183 -11.4375 251.125 C-12.03433594 251.80820312 -12.63117187 252.49140625 -13.24609375 253.1953125 C-15 255 -15 255 -18 257 C-17.4409112 253.75728494 -16.5867822 252.06942576 -14 250 C-13.34 250 -12.68 250 -12 250 C-11.731875 249.278125 -11.46375 248.55625 -11.1875 247.8125 C-10.00383639 245.00908619 -8.61111835 242.57778936 -7 240 C-6.2575 238.6078125 -6.2575 238.6078125 -5.5 237.1875 C-5.005 236.465625 -4.51 235.74375 -4 235 C-3.01 235 -2.02 235 -1 235 C-0.896875 233.906875 -0.79375 232.81375 -0.6875 231.6875 C-0.14033099 227.2229181 1.01744329 223.02051839 2.28125 218.7109375 C3.72558849 213.26326948 4.12771084 208.10881724 4.14044189 202.47912598 C4.14341302 201.74223179 4.14638414 201.00533761 4.1494453 200.2461133 C4.15808744 197.78711074 4.1596368 195.32815714 4.16113281 192.86914062 C4.16576462 191.10101722 4.17078977 189.33289482 4.17617798 187.56477356 C4.18927984 182.76421838 4.19574408 177.96367718 4.20018864 173.16310692 C4.20312645 170.15476166 4.20723286 167.14642015 4.21169281 164.13807678 C4.22536966 154.70019979 4.23503212 145.26233146 4.2388947 135.82444525 C4.24335859 124.97981318 4.26082766 114.13530821 4.2898953 103.29071474 C4.3116442 94.88012585 4.32160617 86.46957233 4.32293582 78.05895567 C4.32397561 73.05042851 4.32970318 68.04202076 4.34775543 63.03352356 C4.56640421 33.88359975 4.56640421 33.88359975 1 5 C0.67 5 0.34 5 0 5 C0 3.35 0 1.7 0 0 Z " fill="#D85930" transform="translate(803,287)"/>
<path d="M0 0 C0 0.66 0 1.32 0 2 C-0.66 2 -1.32 2 -2 2 C-2 2.66 -2 3.32 -2 4 C-4.70879335 5.35439668 -7.00933268 5.06501451 -10 5 C-10 5.66 -10 6.32 -10 7 C-11.53836708 7.65365399 -13.08088766 8.29753603 -14.625 8.9375 C-15.48351562 9.29714844 -16.34203125 9.65679688 -17.2265625 10.02734375 C-23.05122028 12.07007585 -28.7661307 12.14690743 -34.86116028 12.14044189 C-35.74198404 12.14341302 -36.62280781 12.14638414 -37.53032321 12.1494453 C-40.47571019 12.15810255 -43.42105639 12.15963801 -46.36645508 12.16113281 C-48.48079006 12.16576303 -50.59512421 12.17078796 -52.7094574 12.17617798 C-58.44919245 12.1892829 -64.18891582 12.19574302 -69.92866349 12.20018864 C-73.51582067 12.20312197 -77.10297466 12.20722723 -80.69013023 12.21169281 C-91.91719988 12.22536166 -103.14426223 12.23503176 -114.37133962 12.2388947 C-127.32496155 12.24337645 -140.27847802 12.2609324 -153.23206788 12.2898953 C-163.2500832 12.31151615 -173.26806884 12.32159917 -183.28610724 12.32293582 C-189.26728001 12.32398339 -195.24835355 12.32988148 -201.22950172 12.34775543 C-206.85608033 12.36424337 -212.48248519 12.36638801 -218.10907936 12.35761642 C-220.17099473 12.35684649 -222.23291947 12.361183 -224.29481125 12.37107468 C-227.11604292 12.38381271 -229.93666085 12.37790725 -232.75788879 12.36749268 C-233.56802533 12.37554908 -234.37816188 12.38360548 -235.21284801 12.39190602 C-240.79314175 12.34393877 -245.93021469 11.44143999 -251 9 C-251.33 8.34 -251.66 7.68 -252 7 C-250.41632253 7.14204741 -248.83306682 7.28880153 -247.25 7.4375 C-246.36828125 7.51871094 -245.4865625 7.59992187 -244.578125 7.68359375 C-242 8 -242 8 -240.07055998 8.51173574 C-236.65929637 9.31615489 -233.19005029 9.14055229 -229.70324707 9.13371277 C-228.85891727 9.13597833 -228.01458747 9.13824388 -227.14467192 9.14057809 C-224.31062681 9.14691663 -221.47662954 9.1460888 -218.64257812 9.14526367 C-216.61222268 9.14825538 -214.5818678 9.15165794 -212.55151367 9.15544128 C-207.03045669 9.16428746 -201.5094152 9.16661975 -195.98835182 9.16725707 C-192.53686486 9.16796759 -189.08538185 9.17010203 -185.63389587 9.17275429 C-173.58600616 9.18201199 -161.53812752 9.18608892 -149.49023438 9.18530273 C-138.27277029 9.18470285 -127.05535443 9.19523602 -115.83790255 9.2110464 C-106.20034449 9.22414421 -96.56280215 9.22948564 -86.92523527 9.22884732 C-81.17255682 9.22859286 -75.41992115 9.23141527 -69.66725159 9.24202538 C-64.25001392 9.25174324 -58.83285959 9.2517603 -53.4156189 9.24450874 C-51.43398415 9.24346725 -49.45234411 9.24579974 -47.47071838 9.2518692 C-37.42575653 9.28062682 -27.87280456 9.08466521 -18 7 C-16.00121701 6.65944508 -14.00147221 6.32437649 -12 6 C-12 5.34 -12 4.68 -12 4 C-10.3767313 3.3291288 -8.75132422 2.66342971 -7.125 2 C-6.22007812 1.62875 -5.31515625 1.2575 -4.3828125 0.875 C-2 0 -2 0 0 0 Z " fill="#1E0000" transform="translate(774,553)"/>
<path d="M0 0 C2.00991376 -0.0029956 4.01982694 -0.00639905 6.02973938 -0.01017761 C11.46786627 -0.0189804 16.9059774 -0.02135414 22.34411073 -0.0219934 C25.74706004 -0.02270595 29.15000539 -0.02484412 32.55295372 -0.02749062 C44.43992745 -0.03673129 56.32688999 -0.04082705 68.21386719 -0.04003906 C79.27011424 -0.03943842 90.32631249 -0.04999093 101.3825472 -0.06578273 C110.8962514 -0.078884 120.40993969 -0.08422188 129.92365283 -0.08358365 C135.59634952 -0.08332945 141.26900279 -0.08613753 146.94169044 -0.0967617 C152.27939588 -0.10648646 157.61701674 -0.10649198 162.95472527 -0.09924507 C164.90530649 -0.0982047 166.85589311 -0.1005293 168.80646515 -0.10660553 C183.9192719 -0.15060683 200.48320393 -0.18319559 214.16088867 7.14526367 C214.16088867 8.13526367 214.16088867 9.12526367 214.16088867 10.14526367 C212.96463867 9.73276367 211.76838867 9.32026367 210.53588867 8.89526367 C209.6984868 8.62359155 208.86108492 8.35191942 207.99830723 8.07201481 C206.09291288 7.44967928 204.19705274 6.79742889 202.31162167 6.11700344 C191.56617531 2.56357237 181.37903083 2.58508705 170.16503906 2.64355469 C168.07896054 2.63976444 165.99288454 2.63425861 163.90681458 2.62718201 C158.27860827 2.61330143 152.65071023 2.62434546 147.02252126 2.64089322 C141.10920468 2.65482125 135.19590461 2.64827478 129.28257751 2.64476013 C119.35435058 2.64206391 109.42624494 2.6554823 99.49804688 2.67871094 C88.05090609 2.70530951 76.6039681 2.70706782 65.15680701 2.69532257 C54.10646434 2.68450933 43.05619439 2.69076012 32.00585747 2.70487785 C27.32083842 2.71060767 22.63587312 2.71057874 17.95085335 2.70581245 C12.42425035 2.70100819 6.8978668 2.71128605 1.37130547 2.73276711 C-0.64615769 2.73828872 -2.66364213 2.73884335 -4.68110657 2.73381424 C-16.13126238 2.70887013 -26.70198378 3.32850086 -37.83911133 6.14526367 C-37.83911133 5.48526367 -37.83911133 4.82526367 -37.83911133 4.14526367 C-25.74786139 -1.00471315 -12.91331072 -0.00384489 0 0 Z " fill="#4A0F02" transform="translate(555.839111328125,240.854736328125)"/>
<path d="M0 0 C27.7294088 -0.07011399 55.4588043 -0.12299994 83.18828392 -0.15543652 C96.06386658 -0.17089839 108.93939412 -0.19197503 121.81494141 -0.22631836 C133.03864887 -0.25624139 144.2623164 -0.27557994 155.48606265 -0.28226548 C161.42768269 -0.28617279 167.36918854 -0.29534157 173.31077194 -0.31719017 C178.90689513 -0.33760108 184.50285741 -0.34382444 190.09901428 -0.33932304 C192.14922079 -0.34014618 194.19943285 -0.34608425 196.24960709 -0.35761642 C215.34026085 -0.45970442 215.34026085 -0.45970442 224 3 C224 3.33 224 3.66 224 4 C223.30446172 3.93019456 222.60892344 3.86038912 221.89230824 3.78846836 C211.28279548 2.84015837 200.70756211 2.82586454 190.06323242 2.79467773 C187.97266962 2.7850818 185.88210868 2.77507076 183.79154968 2.76467896 C178.15201556 2.7378095 172.51247323 2.71670352 166.87291121 2.69667697 C160.96590311 2.6747057 155.05891981 2.64737187 149.15193176 2.62062073 C137.98218223 2.57084368 126.81241882 2.52584967 115.64264232 2.48259836 C102.91947098 2.43309734 90.19632453 2.3782272 77.47317731 2.32291877 C51.31547481 2.20932901 25.15774838 2.10244049 -1 2 C-0.67 1.34 -0.34 0.68 0 0 Z " fill="#E36335" transform="translate(533,243)"/>
<path d="M0 0 C0.33 0 0.66 0 1 0 C1.14886806 4.61490994 1.11963878 8.54636768 0.00297546 13.02502441 C-1.62871402 21.1006481 -1.27032037 29.3441647 -1.24291992 37.54492188 C-1.24399421 39.41504991 -1.24593506 41.28517762 -1.24867249 43.15530396 C-1.25349793 48.20843717 -1.24589591 53.26148136 -1.23571944 58.31460381 C-1.22690963 63.60674812 -1.2286969 68.89888989 -1.2290802 74.19104004 C-1.22814544 83.0678048 -1.21948336 91.94453526 -1.20581055 100.82128906 C-1.1900483 111.0927159 -1.18481388 121.36410529 -1.1855461 131.63554335 C-1.18615554 141.51871734 -1.18106031 151.40187911 -1.17275429 161.28504944 C-1.16921871 165.49235632 -1.16739066 169.69965887 -1.16686058 173.90696716 C-1.16585899 178.85147353 -1.15977752 183.79594825 -1.14969444 188.74044418 C-1.14676487 190.55857525 -1.14554499 192.37670996 -1.14612198 194.19484329 C-1.14660997 196.66781207 -1.14098391 199.14069114 -1.13371277 201.61364746 C-1.13526137 202.34028076 -1.13680997 203.06691405 -1.1384055 203.81556654 C-1.17352613 207.53225864 -1.17352613 207.53225864 0 211 C0.06996014 212.70702735 0.08440154 214.41668003 0.0625 216.125 C0.05347656 217.03507813 0.04445313 217.94515625 0.03515625 218.8828125 C0.02355469 219.58148438 0.01195312 220.28015625 0 221 C-5.79018084 212.31472874 -4.29009176 200.61848554 -4.2746582 190.59130859 C-4.27901019 188.72271522 -4.28419496 186.85412363 -4.29014587 184.98553467 C-4.30349842 179.92735031 -4.30411844 174.86924085 -4.30158257 169.81104231 C-4.30050977 165.57699921 -4.30540441 161.34297107 -4.310188 157.10893118 C-4.32127142 147.1105325 -4.32172791 137.11217138 -4.31567383 127.11376953 C-4.3096419 116.82951263 -4.32192792 106.54539282 -4.3432439 96.2611593 C-4.36091445 87.40730465 -4.36685246 78.55349341 -4.36360615 69.6996218 C-4.36180097 64.42253683 -4.36435215 59.14554954 -4.37832069 53.86848068 C-4.39098252 48.89926618 -4.38887665 43.93026355 -4.37590981 38.96105194 C-4.37356211 37.14837952 -4.37621298 35.3356918 -4.38453293 33.52303696 C-4.48897146 8.97794292 -4.48897146 8.97794292 0 0 Z " fill="#D85C30" transform="translate(474,291)"/>
<path d="M0 0 C0.66 0 1.32 0 2 0 C2.82545462 1.51384113 3.63471087 3.03651839 4.4375 4.5625 C5.11619141 5.83287109 5.11619141 5.83287109 5.80859375 7.12890625 C8.25878359 13.0334621 8.14515252 19.28631243 8.12698364 25.5796814 C8.12854363 26.41800149 8.13010362 27.25632158 8.13171089 28.1200453 C8.13568383 30.91517204 8.13254571 33.710244 8.12939453 36.50537109 C8.13075015 38.51460807 8.13253099 40.5238448 8.13470459 42.53308105 C8.13925799 47.9788472 8.13749842 53.42459438 8.1343255 58.87036085 C8.13179321 64.56605041 8.13414168 70.26173835 8.13571167 75.95742798 C8.13752993 85.51540417 8.13513512 95.07337264 8.13037109 104.63134766 C8.1249198 115.69627734 8.1266988 126.76118863 8.1321975 137.82611787 C8.13672728 147.32004052 8.13738012 156.81395762 8.13475883 166.307881 C8.13319651 171.98134324 8.13300125 177.65479682 8.13629532 183.32825851 C8.13917239 188.65519834 8.1372014 193.98211428 8.13140106 199.30905151 C8.13007298 201.26950669 8.13046839 203.22996385 8.13266373 205.19041824 C8.13537311 207.85437995 8.13199685 210.51826379 8.12698364 213.18222046 C8.12921436 213.96828623 8.13144509 214.754352 8.13374341 215.56423795 C8.11415047 220.88584953 8.11415047 220.88584953 7 222 C6.71898054 224.31952569 6.55217375 226.63885514 6.37890625 228.96875 C6.25386719 229.6390625 6.12882813 230.309375 6 231 C5.34 231.33 4.68 231.66 4 232 C3.52823718 233.65116986 3.06152311 235.30400973 2.625 236.96484375 C0.91993376 242.51696568 -1.95495716 247.82447191 -6 252 C-6.99 252 -7.98 252 -9 252 C-8 250 -7 248 -6 246 C-5.34 246 -4.68 246 -4 246 C-2.3031886 241.78244474 -0.63383828 237.55481772 1 233.3125 C1.26039063 232.65572266 1.52078125 231.99894531 1.7890625 231.32226562 C6.16152529 219.89423787 6.29834002 208.69749228 6.29052734 196.6171875 C6.29651988 194.7631656 6.30332708 192.90914619 6.31088257 191.05513 C6.32848077 186.04019724 6.33323547 181.02533283 6.33451414 176.01037216 C6.33594036 172.86869354 6.34021897 169.72703202 6.34550858 166.58535767 C6.36399187 155.60035102 6.37218175 144.61539277 6.37060547 133.63037109 C6.36940612 123.43189147 6.39047235 113.23362417 6.4220928 103.03519821 C6.44835659 94.2475168 6.45896847 85.45990428 6.45769465 76.67218399 C6.45718777 71.43801649 6.46271745 66.20403766 6.48405075 60.96990967 C6.50360294 56.0383827 6.50344314 51.107221 6.48901749 46.17568016 C6.48694882 44.38038783 6.49151215 42.58507161 6.5037384 40.78981972 C6.73936607 21.05848978 6.73936607 21.05848978 0 3 C0 2.01 0 1.02 0 0 Z " fill="#2D0000" transform="translate(803,284)"/>
<path d="M0 0 C0.66 0 1.32 0 2 0 C1.81824219 0.52207031 1.63648438 1.04414063 1.44921875 1.58203125 C-2.20439002 12.28054718 -5.15410764 22.552273 -5.14044189 33.92984009 C-5.14341302 34.7105419 -5.14638414 35.49124371 -5.1494453 36.29560316 C-5.1580921 38.90232064 -5.15963714 41.50899199 -5.16113281 44.11572266 C-5.16576388 45.98874 -5.17078893 47.86175641 -5.17617798 49.73477173 C-5.18927734 54.81770433 -5.19574229 59.90062374 -5.20018864 64.98357058 C-5.20312374 68.16269768 -5.2072294 71.34182121 -5.21169281 74.5209465 C-5.22536213 84.47778863 -5.23503118 94.43462255 -5.2388947 104.39147341 C-5.24337221 115.866148 -5.26090825 127.34070327 -5.2898953 138.81534159 C-5.31154952 147.69710775 -5.321601 156.57884042 -5.32293582 165.46063268 C-5.32398129 170.75947307 -5.32983407 176.05820122 -5.34775543 181.3570137 C-5.36430054 186.34586548 -5.36636048 191.33452143 -5.35761642 196.32339096 C-5.35684945 198.1470009 -5.36114358 199.97062165 -5.37107468 201.79420471 C-5.45471599 218.11974104 -2.33082834 230.75385429 5.16796875 245.2734375 C6 247 6 247 7 250 C5.125 249.875 5.125 249.875 3 249 C2.27954236 247.0187415 1.61998741 245.01495907 1 243 C0.36515497 242.24332629 -0.26969006 241.48665258 -0.92377281 240.70704937 C-8.74437057 230.51031158 -7.56383175 215.15929979 -7.48583984 203.00463867 C-7.48799064 201.03837838 -7.49187562 199.07211934 -7.49734497 197.10586548 C-7.50696277 191.8106689 -7.49183237 186.51581427 -7.47143888 181.22065902 C-7.4537538 175.65869198 -7.45739511 170.09673369 -7.4581604 164.53474426 C-7.45629313 155.20352521 -7.4390033 145.87243702 -7.41162109 136.54125977 C-7.3801304 125.77055841 -7.36962686 114.99999993 -7.3710922 104.22925586 C-7.37244524 92.72846603 -7.35855691 81.22773085 -7.34019899 69.72695756 C-7.33594746 66.42570362 -7.33451818 63.12445856 -7.33372116 59.82320213 C-7.33170516 54.62987078 -7.31943764 49.43665829 -7.29938889 44.24336624 C-7.29357226 42.34313116 -7.29108135 40.4428824 -7.29224396 38.54263878 C-7.29668216 26.86791843 -7.17979796 16.24901643 -2.375 5.375 C-1.92898438 4.35148437 -1.48296875 3.32796875 -1.0234375 2.2734375 C-0.68570312 1.52320313 -0.34796875 0.77296875 0 0 Z " fill="#2E0100" transform="translate(476,282)"/>
<path d="M0 0 C-2.31 0.66 -4.62 1.32 -7 2 C-7 2.66 -7 3.32 -7 4 C-8.4562545 4.67119549 -9.91507867 5.33681807 -11.375 6 C-12.18710937 6.37125 -12.99921875 6.7425 -13.8359375 7.125 C-16 8 -16 8 -18 8 C-18.226875 8.598125 -18.45375 9.19625 -18.6875 9.8125 C-20 12 -20 12 -22.4375 13.4375 C-25.47726446 15.29101491 -26.28009602 16.91850537 -28 20 C-30.5 23 -30.5 23 -33 26 C-34.62249868 28.55855561 -36.091283 31.1643094 -37.5625 33.8125 C-38.036875 34.534375 -38.51125 35.25625 -39 36 C-39.66 36 -40.32 36 -41 36 C-40.938125 37.3921875 -40.938125 37.3921875 -40.875 38.8125 C-41 42 -41 42 -43 45 C-43.26875637 47.19992327 -43.44717407 49.41172363 -43.5625 51.625 C-43.90198366 57.90198366 -43.90198366 57.90198366 -45 59 C-46.05644656 75.52213145 -43.49496841 90.03555628 -36 105 C-35.34 105.66 -34.68 106.32 -34 107 C-34 107.99 -34 108.98 -34 110 C-33.195625 110.20625 -32.39125 110.4125 -31.5625 110.625 C-30.716875 111.07875 -29.87125 111.5325 -29 112 C-28.1875 115.125 -28.1875 115.125 -28 118 C-39.91871579 107.16480382 -46.13000042 91.9203752 -47.20483398 75.95800781 C-47.30317945 72.67782354 -47.32209525 69.40657404 -47.3125 66.125 C-47.32861328 65.03058594 -47.34472656 63.93617188 -47.36132812 62.80859375 C-47.37163723 45.38621032 -41.01591248 27.01798394 -28.75 14.375 C-25.3083004 11 -25.3083004 11 -23 11 C-23 10.34 -23 9.68 -23 9 C-17.25 6 -17.25 6 -15 6 C-15 5.34 -15 4.68 -15 4 C-13.25705322 3.13153169 -11.50531337 2.28069373 -9.75 1.4375 C-8.77546875 0.96183594 -7.8009375 0.48617188 -6.796875 -0.00390625 C-3.90143703 -1.03510273 -2.80033839 -1.11346788 0 0 Z " fill="#350802" transform="translate(695,337)"/>
<path d="M0 0 C-1.76533374 5.53672856 -3.72859838 10.91434805 -6.03515625 16.25 C-8.87632409 24.34790347 -9.35239058 32.07968947 -9.3125 40.625 C-9.31056641 42.33792236 -9.31056641 42.33792236 -9.30859375 44.08544922 C-9.2107659 52.71508869 -8.30667416 60.67949677 -6 69 C-7.953125 68.2578125 -7.953125 68.2578125 -10 67 C-10.83886169 64.32209537 -10.81766414 61.8262059 -11 59 C-11.33 59.99 -11.66 60.98 -12 62 C-12.66 62 -13.32 62 -14 62 C-13.67 63.32 -13.34 64.64 -13 66 C-14.98 66.99 -14.98 66.99 -17 68 C-16.855625 67.175 -16.71125 66.35 -16.5625 65.5 C-15.17108218 56.84228912 -14.75445708 48.45887686 -14.6875 39.6875 C-14.64399414 37.80514648 -14.64399414 37.80514648 -14.59960938 35.88476562 C-14.55045549 28.62889534 -15.24921016 22.87111708 -18.13598633 16.18286133 C-19 14 -19 14 -19 11 C-18.34 11 -17.68 11 -17 11 C-16.73445312 11.74765625 -16.46890625 12.4953125 -16.1953125 13.265625 C-15.84210937 14.25046875 -15.48890625 15.2353125 -15.125 16.25 C-14.77695312 17.22453125 -14.42890625 18.1990625 -14.0703125 19.203125 C-13.16725355 21.56294327 -12.17921582 23.76905116 -11 26 C-10.89042969 25.41734375 -10.78085937 24.8346875 -10.66796875 24.234375 C-10.13608694 21.48415688 -9.57330446 18.74189092 -9 16 C-8.78214844 14.94554687 -8.56429687 13.89109375 -8.33984375 12.8046875 C-8.10394531 11.75539063 -7.86804688 10.70609375 -7.625 9.625 C-7.41101563 8.64789063 -7.19703125 7.67078125 -6.9765625 6.6640625 C-5.73202509 3.26896444 -3.93160345 0 0 0 Z " fill="#DF5F34" transform="translate(658,362)"/>
<path d="M0 0 C1.58367747 0.14204741 3.16693318 0.28880153 4.75 0.4375 C5.63171875 0.51871094 6.5134375 0.59992187 7.421875 0.68359375 C10 1 10 1 11.92944002 1.51191032 C15.34090232 2.31608869 18.8099391 2.13683583 22.29675293 2.12698364 C23.56324763 2.12932363 23.56324763 2.12932363 24.85532808 2.13171089 C27.68937701 2.13570479 30.52337253 2.13253735 33.35742188 2.12939453 C35.38777701 2.13074937 37.4181319 2.13252976 39.44848633 2.13470459 C44.96954638 2.13927145 50.49058779 2.1374918 56.01164818 2.1343255 C61.79296291 2.13179531 67.57427603 2.13414155 73.35559082 2.13571167 C83.073652 2.1375326 92.79170559 2.13513028 102.50976562 2.13037109 C113.72721579 2.12494086 124.94464774 2.12668241 136.16209745 2.1321975 C145.79965479 2.13674544 155.43720666 2.13737058 165.07476473 2.13475883 C170.82742899 2.13320373 176.58008471 2.13298099 182.33274841 2.13629532 C187.7499679 2.13919802 193.16716411 2.13715445 198.5843811 2.13140106 C200.56601422 2.13008576 202.54764931 2.13044653 204.52928162 2.13266373 C214.40032985 2.14268405 224.17498296 2.10295976 234 1 C228.26603219 4.82264521 220.7304617 4.15298562 214.01222229 4.17840576 C212.70679935 4.18898777 212.70679935 4.18898777 211.37500423 4.19978356 C208.47731049 4.22205237 205.57962251 4.23752395 202.68188477 4.25292969 C200.59680935 4.26743081 198.51173652 4.28230765 196.42666626 4.29753113 C190.77591337 4.33731328 185.125141 4.37071458 179.47433591 4.40211773 C175.94177233 4.42187295 172.40921672 4.44271434 168.8766613 4.46387482 C157.81727584 4.52977697 146.75787853 4.59171725 135.69844013 4.64805388 C122.94343971 4.71307273 110.18860892 4.79122423 97.43375736 4.88073611 C87.5643711 4.94920284 77.69496043 5.00597454 67.82545322 5.05390286 C61.9348174 5.08276816 56.04430911 5.11656838 50.15377998 5.16255951 C44.61423813 5.20548868 39.07480878 5.23388182 33.53512955 5.25121498 C31.50543818 5.26004566 29.47576152 5.27405419 27.44614601 5.29369926 C24.66886981 5.31977439 21.89214491 5.32693342 19.11476135 5.32952881 C18.3176619 5.34147616 17.52056244 5.35342351 16.69930845 5.36573291 C11.14557324 5.34288052 6.0447806 4.42702528 1 2 C0.67 1.34 0.34 0.68 0 0 Z " fill="#5C1000" transform="translate(522,560)"/>
<path d="M0 0 C2.94140625 2.02734375 2.94140625 2.02734375 5 4 C4.15050781 3.83886719 3.30101562 3.67773438 2.42578125 3.51171875 C-7.78552323 1.98642698 -19.45530125 1.52069298 -28.1875 7.6875 C-36.17075537 14.25821118 -41.21996647 21.69839149 -43 32 C-43.90697089 44.84798883 -44.46420385 57.6391698 -39.09375 69.55859375 C-38 72 -38 72 -38 75 C-41.66670726 72.5555285 -41.93344791 71.18416588 -43 67 C-43.125 64.125 -43.125 64.125 -43 62 C-43.66 62 -44.32 62 -45 62 C-46.39732298 55.92696551 -46.22356045 49.89088011 -46.25 43.6875 C-46.2809375 41.89022461 -46.2809375 41.89022461 -46.3125 40.05664062 C-46.34244444 33.26299617 -45.86608482 28.17366251 -43 22 C-42.67 21.01 -42.34 20.02 -42 19 C-41.34 19 -40.68 19 -40 19 C-40 17.68 -40 16.36 -40 15 C-39.34 15 -38.68 15 -38 15 C-37.896875 14.360625 -37.79375 13.72125 -37.6875 13.0625 C-37.3471875 12.0415625 -37.3471875 12.0415625 -37 11 C-36.01 10.67 -35.02 10.34 -34 10 C-34 9.34 -34 8.68 -34 8 C-32.75 6.375 -32.75 6.375 -31 5 C-29.68 5 -28.36 5 -27 5 C-27 4.34 -27 3.68 -27 3 C-18.20448344 0.24833002 -9.20815788 -1.36456949 0 0 Z " fill="#2E0501" transform="translate(723,359)"/>
<path d="M0 0 C2.97941998 -0.05455703 5.95781531 -0.09393851 8.9375 -0.125 C10.18370117 -0.15013672 10.18370117 -0.15013672 11.45507812 -0.17578125 C19.90469581 -0.24153703 30.22779073 0.72146755 36.8125 6.625 C37.204375 7.07875 37.59625 7.5325 38 8 C38.66 8.33 39.32 8.66 40 9 C40.495 10.485 40.495 10.485 41 12 C41.66 12.5775 42.32 13.155 43 13.75 C45.63580622 16.715282 45.70140041 19.11820531 46 23 C45.56945312 22.41992188 45.13890625 21.83984375 44.6953125 21.2421875 C38.7023091 13.3159572 31.76786226 5.22763482 21.48828125 3.25 C8.06148186 1.90099661 -2.46771419 2.89580848 -13.3046875 11.5390625 C-15.30888148 13.26617897 -17.20512566 15.0555528 -19 17 C-18.67 15.02 -18.34 13.04 -18 11 C-17.01 11 -16.02 11 -15 11 C-15 10.01 -15 9.02 -15 8 C-14.34 8 -13.68 8 -13 8 C-12.67 7.01 -12.34 6.02 -12 5 C-10.29296875 4.05078125 -10.29296875 4.05078125 -8.1875 3.3125 C-7.50042969 3.06113281 -6.81335938 2.80976563 -6.10546875 2.55078125 C-4 2 -4 2 0 2 C0 1.34 0 0.68 0 0 Z " fill="#3D0A03" transform="translate(565,359)"/>
<path d="M0 0 C0.33 0.66 0.66 1.32 1 2 C0.05184571 3.69669715 -0.96344932 5.35581617 -2 7 C-3.37475464 9.64640269 -4.69034719 12.32086252 -6 15 C-6.66 15 -7.32 15 -8 15 C-8.79030399 21.8444001 -9.20929673 28.61097129 -9.25 35.5 C-9.270625 36.37269531 -9.29125 37.24539063 -9.3125 38.14453125 C-9.35397317 45.14312822 -8.73725448 52.83504951 -4 58.3125 C-3.34 58.869375 -2.68 59.42625 -2 60 C-1.566875 60.78375 -1.13375 61.5675 -0.6875 62.375 C1.2964904 65.46120729 3.60515296 67.32891687 6.4765625 69.5703125 C8 71 8 71 9 74 C5.84296394 72.57401292 3.41971432 70.8370866 0.8125 68.5625 C-0.22970703 67.66724609 -0.22970703 67.66724609 -1.29296875 66.75390625 C-3 65 -3 65 -4 62 C-4.66 62 -5.32 62 -6 62 C-12.73498089 48.36968154 -14.98003693 32.78060007 -11.07421875 17.85546875 C-8.67325049 11.13745007 -5.06594719 5.06594719 0 0 Z " fill="#D55D33" transform="translate(551,370)"/>
<path d="M0 0 C3.44970823 3.02211834 4.86675811 5.58467931 6.25 9.9375 C6.58515625 10.95714844 6.9203125 11.97679687 7.265625 13.02734375 C8 16 8 16 8 21 C-1.9 21 -11.8 21 -22 21 C-22.99 18.03 -23.98 15.06 -25 12 C-25.66 12 -26.32 12 -27 12 C-27.7734375 10.9171875 -27.7734375 10.9171875 -28.5625 9.8125 C-31.81435159 6.06036355 -35.60748742 4.205642 -40 2 C-36.90279155 1.12159004 -35.09354597 1.00564594 -32 2 C-32 2.99 -32 3.98 -32 5 C-31.236875 5.103125 -30.47375 5.20625 -29.6875 5.3125 C-26.74248716 6.06587538 -25.74790644 6.55293098 -24 9 C-23.3125 11.6875 -23.3125 11.6875 -23 14 C-22.34 14 -21.68 14 -21 14 C-20.67 15.65 -20.34 17.3 -20 19 C-11.75 19 -3.5 19 5 19 C4.505 13.555 4.505 13.555 4 8 C3.01 7.67 2.02 7.34 1 7 C0.505 3.535 0.505 3.535 0 0 Z " fill="#330200" transform="translate(768,362)"/>
<path d="M0 0 C0.33 0 0.66 0 1 0 C1.20905554 4.46757906 0.57913304 7.66933809 -0.97265625 11.84375 C-3.29529144 19.0710934 -3.57754695 25.86802053 -3.46655273 33.36572266 C-3.43752023 35.49851361 -3.44601169 37.62881273 -3.45898438 39.76171875 C-3.44419771 47.58172076 -2.68544488 54.7733866 -0.54321289 62.34570312 C0.00544058 65.02658429 -0.08904958 66.45584291 -1 69 C-1.81571218 66.43848317 -2.62766131 63.87587372 -3.4375 61.3125 C-3.78264648 60.2306543 -3.78264648 60.2306543 -4.13476562 59.12695312 C-4.35712891 58.42119141 -4.57949219 57.71542969 -4.80859375 56.98828125 C-5.11494751 56.02208862 -5.11494751 56.02208862 -5.42749023 55.03637695 C-10.17556545 38.1478075 -8.41837046 15.48594221 0 0 Z " fill="#320802" transform="translate(515,368)"/>
<path d="M0 0 C0.64324219 0.45890625 1.28648437 0.9178125 1.94921875 1.390625 C9.00615917 6.18249895 15.74029802 8.95925396 24 11 C24.65563431 11.16867081 25.31126862 11.33734161 25.98677063 11.51112366 C31.32967325 12.80884372 36.26821019 13.27173105 41.75390625 13.1953125 C42.54022934 13.1924826 43.32655243 13.18965271 44.13670349 13.18673706 C46.61213359 13.17567289 49.08718199 13.15059591 51.5625 13.125 C53.2558541 13.11495234 54.94921395 13.10582965 56.64257812 13.09765625 C60.76186253 13.07577898 64.88086689 13.04134718 69 13 C62.13383117 16.58768689 54.72065455 16.27719524 47.125 16.5625 C45.52011719 16.62727539 45.52011719 16.62727539 43.8828125 16.69335938 C41.25532246 16.79892817 38.62774578 16.90103791 36 17 C36 17.33 36 17.66 36 18 C33.1875 18.1875 33.1875 18.1875 30 18 C29.52046875 17.51789063 29.0409375 17.03578125 28.546875 16.5390625 C26.67071138 14.67237445 25.6491957 14.54877035 23.0625 14.1875 C16.83829643 13.00633926 11.53428828 9.9778404 6 7 C6 6.34 6 5.68 6 5 C5.195625 4.731875 4.39125 4.46375 3.5625 4.1875 C2.716875 3.795625 1.87125 3.40375 1 3 C0.67 2.01 0.34 1.02 0 0 Z " fill="#E35F34" transform="translate(531,460)"/>
<path d="M0 0 C1.29349365 0.00523682 2.5869873 0.01047363 3.91967773 0.01586914 C4.9496714 0.01799156 4.9496714 0.01799156 6.00047302 0.02015686 C8.20144949 0.0257706 10.40232557 0.03832532 12.60327148 0.05102539 C14.09220231 0.05603863 15.58113473 0.06060184 17.07006836 0.06469727 C20.72700223 0.07574446 24.38387707 0.09301826 28.04077148 0.11352539 C25.4371014 11.37319628 22.12636587 21.5523078 14.04077148 30.11352539 C13.71077148 29.12352539 13.38077148 28.13352539 13.04077148 27.11352539 C13.70077148 27.11352539 14.36077148 27.11352539 15.04077148 27.11352539 C15.37077148 25.79352539 15.70077148 24.47352539 16.04077148 23.11352539 C16.70077148 23.11352539 17.36077148 23.11352539 18.04077148 23.11352539 C18.04077148 21.46352539 18.04077148 19.81352539 18.04077148 18.11352539 C18.70077148 18.11352539 19.36077148 18.11352539 20.04077148 18.11352539 C20.37077148 16.46352539 20.70077148 14.81352539 21.04077148 13.11352539 C21.70077148 13.11352539 22.36077148 13.11352539 23.04077148 13.11352539 C23.70077148 9.48352539 24.36077148 5.85352539 25.04077148 2.11352539 C16.13077148 2.11352539 7.22077148 2.11352539 -1.95922852 2.11352539 C-2.28922852 4.09352539 -2.61922852 6.07352539 -2.95922852 8.11352539 C-3.61922852 8.11352539 -4.27922852 8.11352539 -4.95922852 8.11352539 C-4.95922852 8.77352539 -4.95922852 9.43352539 -4.95922852 10.11352539 C-5.61922852 10.11352539 -6.27922852 10.11352539 -6.95922852 10.11352539 C-6.48372291 8.63317775 -6.00371636 7.15427518 -5.52172852 5.67602539 C-5.25489258 4.85231445 -4.98805664 4.02860352 -4.71313477 3.17993164 C-3.56127633 0.02276525 -3.5285491 0.13536633 0 0 Z " fill="#3B0901" transform="translate(748.959228515625,423.886474609375)"/>
<path d="M0 0 C8.21881639 0.51927162 8.21881639 0.51927162 11.4375 2.5 C19.20193071 7.04503261 30.85428522 5.11777323 39.625 5.0625 C41.02473797 5.05747197 42.4244777 5.05291138 43.82421875 5.04882812 C47.21619169 5.03713167 50.60807233 5.02074086 54 5 C54 4.34 54 3.68 54 3 C55.24420647 2.4654744 56.49570936 1.94791389 57.75 1.4375 C58.44609375 1.14746094 59.1421875 0.85742188 59.859375 0.55859375 C62.30012784 -0.07831803 63.6403655 0.19751169 66 1 C51.86625857 9.88406604 31.51415138 10.25748606 15.46875 6.703125 C3.21238938 3.21238938 3.21238938 3.21238938 0 0 Z " fill="#280301" transform="translate(680,466)"/>
<path d="M0 0 C0.66 0 1.32 0 2 0 C2 7.47142521 -2.2561572 12.50757207 -7 18 C-9.94820069 20.5703389 -12.07984686 22.41923657 -16 23 C-16 23.66 -16 24.32 -16 25 C-26.60642739 29.28336491 -39.13235229 29.62254924 -50 26 C-47.04229252 25.10271796 -44.86033804 24.98781898 -41.8125 25.4375 C-29.93615044 26.84950899 -21.19167459 24.74023869 -11 18 C-10.67 17.34 -10.34 16.68 -10 16 C-10.66 15.67 -11.32 15.34 -12 15 C-11.01 14.34 -10.02 13.68 -9 13 C-9 13.66 -9 14.32 -9 15 C-8.34 15 -7.68 15 -7 15 C-7 13.35 -7 11.7 -7 10 C-6.01 9.67 -5.02 9.34 -4 9 C-3.67 8.01 -3.34 7.02 -3 6 C-2.34 6 -1.68 6 -1 6 C-0.67 4.02 -0.34 2.04 0 0 Z " fill="#D95D33" transform="translate(610,419)"/>
<path d="M0 0 C-19.37587056 11.37008481 -42.14403388 12.83923177 -63.79711914 7.59936523 C-66.84567596 6.7896799 -68.73436029 6.26563971 -71 4 C-63.32537035 4.93975057 -55.66322553 5.9722497 -48 7 C-48 7.66 -48 8.32 -48 9 C-42.02233557 8.57541823 -36.28344579 7.94580043 -30.45703125 6.5390625 C-26.37562978 5.64361989 -22.24530261 5.07531333 -18.11328125 4.46484375 C-15.06919155 4.01033098 -12.03453529 3.51409668 -9 3 C-9 2.34 -9 1.68 -9 1 C-3.375 -1.125 -3.375 -1.125 0 0 Z " fill="#290200" transform="translate(616,464)"/>
<path d="M0 0 C1.65697379 0.69040574 3.31923769 1.36971413 5 2 C4.34 2.66 3.68 3.32 3 4 C3 3.34 3 2.68 3 2 C1.205625 1.8453125 1.205625 1.8453125 -0.625 1.6875 C-3.55472848 1.3353201 -5.10153518 0.94461717 -7.75 -0.5 C-11.96568506 -2.4457008 -15.79154248 -2.54881192 -20.390625 -2.7890625 C-23 -3 -23 -3 -25 -4 C-33.14732675 -4.50920792 -42.51175744 -4.74412128 -50 -1 C-51.43566947 -0.87307441 -52.87371788 -0.77213424 -54.3125 -0.6875 C-58.69802385 -0.2728431 -60.64599652 1.12513987 -64 4 C-66.13671875 3.6171875 -66.13671875 3.6171875 -68 3 C-50.99936541 -9.75047594 -18.2079405 -10.59371083 0 0 Z " fill="#270000" transform="translate(606,340)"/>
<path d="M0 0 C1.08345703 0.00193359 2.16691406 0.00386719 3.28320312 0.00585938 C4.41048828 0.01810547 5.53777344 0.03035156 6.69921875 0.04296875 C8.37274414 0.04393555 8.37274414 0.04393555 10.08007812 0.04492188 C17.40547939 0.08400226 24.23765643 0.34513036 31.26171875 2.60546875 C32.02226563 2.84007812 32.7828125 3.0746875 33.56640625 3.31640625 C35.38671875 4.23046875 35.38671875 4.23046875 36.38671875 7.23046875 C34.78570313 6.79734375 34.78570313 6.79734375 33.15234375 6.35546875 C16.03537509 1.98774419 -0.25452203 2.51513211 -17.61328125 5.23046875 C-17.61328125 4.57046875 -17.61328125 3.91046875 -17.61328125 3.23046875 C-16.37578125 3.10671875 -15.13828125 2.98296875 -13.86328125 2.85546875 C-11.51240445 2.62038107 -9.89661867 2.39120638 -7.83032227 1.21899414 C-5.07801709 -0.0081927 -3.00853328 -0.01259007 0 0 Z " fill="#D4592F" transform="translate(705.61328125,331.76953125)"/>
<path d="M0 0 C2.56843355 6.84363262 -2.34758334 15.75304781 -5.125 22.0625 C-6.36596993 24.73417493 -7.67560318 27.36878685 -9 30 C-9.66 30 -10.32 30 -11 30 C-11.25910156 30.57492187 -11.51820313 31.14984375 -11.78515625 31.7421875 C-13.09884061 34.18369734 -14.60297053 36.04981183 -16.4375 38.125 C-17.33275391 39.14980469 -17.33275391 39.14980469 -18.24609375 40.1953125 C-20 42 -20 42 -23 44 C-22.4409112 40.75728494 -21.5867822 39.06942576 -19 37 C-18.34 37 -17.68 37 -17 37 C-16.731875 36.278125 -16.46375 35.55625 -16.1875 34.8125 C-15.00383639 32.00908619 -13.61111835 29.57778936 -12 27 C-11.505 26.071875 -11.01 25.14375 -10.5 24.1875 C-10.005 23.465625 -9.51 22.74375 -9 22 C-8.01 22 -7.02 22 -6 22 C-5.896875 20.906875 -5.79375 19.81375 -5.6875 18.6875 C-4.88001659 12.22763272 -3.63702621 5.45553932 0 0 Z " fill="#DC5E33" transform="translate(808,500)"/>
<path d="M0 0 C2.625 2.25 2.625 2.25 4 4 C-0.75 3.25 -0.75 3.25 -3 1 C-7.43029982 -0.82878655 -11.22724154 -1.27093315 -16 -1.25 C-17.175625 -1.25515625 -18.35125 -1.2603125 -19.5625 -1.265625 C-26.20467542 -0.75236599 -31.69705169 2.20690348 -37.609375 5.07421875 C-38.39828125 5.37972656 -39.1871875 5.68523437 -40 6 C-40.66 5.67 -41.32 5.34 -42 5 C-30.19817139 -4.96598861 -14.06551166 -8.13162393 0 0 Z " fill="#D85C32" transform="translate(732,365)"/>
<path d="M0 0 C3.48151618 1.76488741 6.76062423 3.7857109 9.97265625 6 C9.31265625 6.66 8.65265625 7.32 7.97265625 8 C7.97265625 7.34 7.97265625 6.68 7.97265625 6 C6.98265625 6 5.99265625 6 4.97265625 6 C4.97265625 5.34 4.97265625 4.68 4.97265625 4 C-4.95553781 0.39754514 -17.83955568 -1.38012864 -27.96484375 2.5 C-29.48078125 3.2425 -29.48078125 3.2425 -31.02734375 4 C-31.68734375 4 -32.34734375 4 -33.02734375 4 C-33.35734375 4.99 -33.68734375 5.98 -34.02734375 7 C-35.67734375 7 -37.32734375 7 -39.02734375 7 C-36.65787647 4.33434931 -34.22370529 2.92561586 -31.02734375 1.375 C-30.16109375 0.94960938 -29.29484375 0.52421875 -28.40234375 0.0859375 C-20.24517316 -3.64382142 -8.33922135 -3.34211568 0 0 Z " fill="#D35E36" transform="translate(591.02734375,363)"/>
<path d="M0 0 C0.66 0.33 1.32 0.66 2 1 C0 4 0 4 -2.25 4.8125 C-4.94331104 5.97552067 -5.92770532 6.79753856 -7.875 8.875 C-11.73523734 12.94416772 -16.33824413 16.09411906 -22 17 C-22.33 18.65 -22.66 20.3 -23 22 C-24.32 22.33 -25.64 22.66 -27 23 C-23.51737897 12.26976224 -11.07121345 6.03889594 -1.8046875 0.74609375 C-0.91136719 0.37677734 -0.91136719 0.37677734 0 0 Z " fill="#E0612F" transform="translate(513,249)"/>
<path d="M0 0 C0.33 0 0.66 0 1 0 C1.02689216 1.47906892 1.04634621 2.95827483 1.0625 4.4375 C1.07410156 5.26121094 1.08570313 6.08492188 1.09765625 6.93359375 C1 9 1 9 0 10 C-0.28101946 12.31952569 -0.44782625 14.63885514 -0.62109375 16.96875 C-0.74613281 17.6390625 -0.87117187 18.309375 -1 19 C-1.66 19.33 -2.32 19.66 -3 20 C-3.47176282 21.65116986 -3.93847689 23.30400973 -4.375 24.96484375 C-6.08006624 30.51696568 -8.95495716 35.82447191 -13 40 C-13.99 40 -14.98 40 -16 40 C-15 38 -14 36 -13 34 C-12.34 34 -11.68 34 -11 34 C-6.48374192 22.76337702 -2.32703119 11.92093169 0 0 Z " fill="#430E05" transform="translate(810,496)"/>
<path d="M0 0 C-2.31 0.66 -4.62 1.32 -7 2 C-7 2.66 -7 3.32 -7 4 C-8.4562545 4.67119549 -9.91507867 5.33681807 -11.375 6 C-12.18710937 6.37125 -12.99921875 6.7425 -13.8359375 7.125 C-16 8 -16 8 -18 8 C-18.20625 8.5775 -18.4125 9.155 -18.625 9.75 C-20.50145055 12.82055545 -22.98992391 14.0735513 -26 16 C-26.721875 16.721875 -27.44375 17.44375 -28.1875 18.1875 C-30 20 -30 20 -33 21 C-31.40907948 16.86360664 -28.39525082 13.76786752 -25 11 C-24.34 11 -23.68 11 -23 11 C-23 10.34 -23 9.68 -23 9 C-17.25 6 -17.25 6 -15 6 C-15 5.34 -15 4.68 -15 4 C-13.25705322 3.13153169 -11.50531337 2.28069373 -9.75 1.4375 C-8.77546875 0.96183594 -7.8009375 0.48617188 -6.796875 -0.00390625 C-3.90143703 -1.03510273 -2.80033839 -1.11346788 0 0 Z " fill="#440F05" transform="translate(695,337)"/>
<path d="M0 0 C0.99 0.33 1.98 0.66 3 1 C2.65066406 1.74765625 2.30132813 2.4953125 1.94140625 3.265625 C1.48636719 4.25046875 1.03132812 5.2353125 0.5625 6.25 C0.11003906 7.22453125 -0.34242188 8.1990625 -0.80859375 9.203125 C-2.61094677 13.43422259 -3.14534158 17.04631671 -3.31640625 21.640625 C-3.35830078 22.71054687 -3.40019531 23.78046875 -3.44335938 24.8828125 C-3.48267578 25.99398438 -3.52199219 27.10515625 -3.5625 28.25 C-3.60568359 29.37664062 -3.64886719 30.50328125 -3.69335938 31.6640625 C-3.79932015 34.44258954 -3.90139142 37.22120391 -4 40 C-4.66 40 -5.32 40 -6 40 C-6 31.09 -6 22.18 -6 13 C-5.34 13 -4.68 13 -4 13 C-3.67 11.02 -3.34 9.04 -3 7 C-2.34 7 -1.68 7 -1 7 C-0.67 4.69 -0.34 2.38 0 0 Z " fill="#380801" transform="translate(543,376)"/>
<path d="M0 0 C0 0.66 0 1.32 0 2 C-0.66 2 -1.32 2 -2 2 C-2 2.66 -2 3.32 -2 4 C-4.70879335 5.35439668 -7.00933268 5.06501451 -10 5 C-10 5.66 -10 6.32 -10 7 C-11.53836708 7.65365399 -13.08088766 8.29753603 -14.625 8.9375 C-15.48351562 9.29714844 -16.34203125 9.65679688 -17.2265625 10.02734375 C-22.35649526 11.82643284 -27.30540276 12.12245228 -32.7109375 12.09765625 C-33.95488281 12.09443359 -35.19882812 12.09121094 -36.48046875 12.08789062 C-37.76566406 12.07951172 -39.05085937 12.07113281 -40.375 12.0625 C-41.68339844 12.05798828 -42.99179687 12.05347656 -44.33984375 12.04882812 C-47.55994281 12.03707594 -50.7799477 12.02064543 -54 12 C-54 11.67 -54 11.34 -54 11 C-53.30028076 10.97494385 -52.60056152 10.9498877 -51.87963867 10.92407227 C-48.64880582 10.80662133 -45.41816098 10.68458364 -42.1875 10.5625 C-41.08728516 10.52318359 -39.98707031 10.48386719 -38.85351562 10.44335938 C-31.87496137 10.1757452 -24.94750339 9.71160177 -18 9 C-18 8.34 -18 7.68 -18 7 C-16.02 6.67 -14.04 6.34 -12 6 C-12 5.34 -12 4.68 -12 4 C-10.3767313 3.3291288 -8.75132422 2.66342971 -7.125 2 C-6.22007812 1.62875 -5.31515625 1.2575 -4.3828125 0.875 C-2 0 -2 0 0 0 Z " fill="#1B0000" transform="translate(774,553)"/>
<path d="M0 0 C3.30751107 3.70274824 4.84579867 6.86059118 6.1875 11.625 C6.51105469 12.75164062 6.83460938 13.87828125 7.16796875 15.0390625 C7.44253906 16.01617187 7.71710937 16.99328125 8 18 C8.33 18.99 8.66 19.98 9 21 C9.08358958 23.21089945 9.10731764 25.42426078 9.09765625 27.63671875 C9.09443359 28.93544922 9.09121094 30.23417969 9.08789062 31.57226562 C9.07953531 32.94401108 9.07107037 34.31575587 9.0625 35.6875 C9.05748335 37.07096195 9.05292073 38.45442563 9.04882812 39.83789062 C9.03702529 43.22530395 9.02056019 46.61263033 9 50 C8.67 50 8.34 50 8 50 C8 42.08 8 34.16 8 26 C7.34 26 6.68 26 6 26 C5.96132813 25.03900391 5.96132813 25.03900391 5.921875 24.05859375 C5.52644335 17.92785188 5.52644335 17.92785188 3 12.4375 C0.55714667 8.23884583 0.216526 4.77439839 0 0 Z " fill="#450D05" transform="translate(635,366)"/>
<path d="M0 0 C0.33 0 0.66 0 1 0 C0.88204476 1.45892004 0.75508849 2.91711177 0.625 4.375 C0.55539062 5.18710937 0.48578125 5.99921875 0.4140625 6.8359375 C0.06404916 9.51056771 -0.44449382 12.02860276 -1.03125 14.65625 C-2.16548958 20.18295879 -2.22766993 25.50184682 -2.125 31.125 C-2.11597656 32.08148438 -2.10695313 33.03796875 -2.09765625 34.0234375 C-2.07439827 36.34923525 -2.04172213 38.67447294 -2 41 C-5.19936406 36.2009539 -4.32798256 31.01684367 -4.3125 25.375 C-4.32861328 24.22386719 -4.34472656 23.07273437 -4.36132812 21.88671875 C-4.36526196 14.98677521 -3.64277088 9.37287306 -1 3 C-0.67 2.01 -0.34 1.02 0 0 Z " fill="#E36136" transform="translate(683,379)"/>
<path d="M0 0 C0.495 1.98 0.495 1.98 1 4 C0.01 4.33 -0.98 4.66 -2 5 C-2.73323796 7.01508358 -2.73323796 7.01508358 -3 9 C-3.99 9 -4.98 9 -6 9 C-6.2475 9.639375 -6.495 10.27875 -6.75 10.9375 C-8 13 -8 13 -10.125 13.75 C-11.053125 13.87375 -11.053125 13.87375 -12 14 C-12 14.66 -12 15.32 -12 16 C-18.56774842 18.8364569 -24.88127577 19.30183803 -31.9375 19.3125 C-32.77837158 19.31765625 -33.61924316 19.3228125 -34.4855957 19.328125 C-40.61178254 19.25881164 -40.61178254 19.25881164 -44 17 C-43.44650879 17.01047363 -42.89301758 17.02094727 -42.32275391 17.03173828 C-28.03572158 17.34836853 -28.03572158 17.34836853 -14 15 C-14 14.34 -14 13.68 -14 13 C-13.030625 12.731875 -12.06125 12.46375 -11.0625 12.1875 C-10.051875 11.795625 -9.04125 11.40375 -8 11 C-7.67 10.01 -7.34 9.02 -7 8 C-6.34 8 -5.68 8 -5 8 C-4.731875 7.4225 -4.46375 6.845 -4.1875 6.25 C-2.98280141 3.9674132 -1.59201885 2.0262058 0 0 Z " fill="#4C0C03" transform="translate(608,429)"/>
<path d="M0 0 C-1.55603771 3.81936528 -3.95604931 6.26044438 -7 9 C-7.66 9 -8.32 9 -9 9 C-9.33 9.99 -9.66 10.98 -10 12 C-10.66 12 -11.32 12 -12 12 C-12.2475 12.598125 -12.495 13.19625 -12.75 13.8125 C-14 16 -14 16 -16 17.4375 C-18.45285257 19.35379107 -19.05340705 21.0813384 -20 24 C-20.66 24 -21.32 24 -22 24 C-20.6923611 18.92061652 -18.38855956 15.70868402 -14.8125 12 C-14.32144775 11.47889648 -13.83039551 10.95779297 -13.32446289 10.42089844 C-3.39072027 0 -3.39072027 0 0 0 Z " fill="#3C0B03" transform="translate(538,344)"/>
<path d="M0 0 C0.99 0.33 1.98 0.66 3 1 C-4.85425381 7.45469263 -10.90378342 10.23126871 -21.125 10.3125 C-22.1469043 10.32095947 -22.1469043 10.32095947 -23.18945312 10.32958984 C-27.48083541 10.26795607 -31.00963488 9.56009602 -35 8 C-32.22311816 7.21049057 -29.80088408 6.88892859 -26.91796875 6.9375 C-26.15033203 6.94523437 -25.38269531 6.95296875 -24.59179688 6.9609375 C-23.00064794 6.98678882 -21.40950204 7.01282767 -19.81835938 7.0390625 C-15.08932069 7.08647141 -10.66398377 6.7970493 -6 6 C-6 5.34 -6 4.68 -6 4 C-4.02 3.34 -2.04 2.68 0 2 C0 1.34 0 0.68 0 0 Z " fill="#D65A33" transform="translate(735,437)"/>
<path d="M0 0 C0.33 0 0.66 0 1 0 C1.33 6.6 1.66 13.2 2 20 C2.33 20 2.66 20 3 20 C3.14285714 28.57142857 3.14285714 28.57142857 2 32 C1.34 32 0.68 32 0 32 C0.33 33.32 0.66 34.64 1 36 C-0.32 36.66 -1.64 37.32 -3 38 C-2.855625 37.175 -2.71125 36.35 -2.5625 35.5 C-1.27396556 27.48245239 -0.73341394 19.61095261 -0.4375 11.5 C-0.39431641 10.39140625 -0.35113281 9.2828125 -0.30664062 8.140625 C-0.20137786 5.42718494 -0.09924154 2.71366583 0 0 Z " fill="#CB5028" transform="translate(644,392)"/>
<path d="M0 0 C10.47680565 -0.69077839 20.67640915 0.92686969 30 6 C30 6.99 30 7.98 30 9 C28.80375 8.5875 27.6075 8.175 26.375 7.75 C17.71073315 4.87105057 9.08037223 2.13215837 0 1 C0 0.67 0 0.34 0 0 Z " fill="#460E04" transform="translate(740,242)"/>
<path d="M0 0 C3.24271506 0.5590888 4.93057424 1.4132178 7 4 C7 4.66 7 5.32 7 6 C9.31 6.33 11.62 6.66 14 7 C14 8.65 14 10.3 14 12 C14.7425 11.896875 15.485 11.79375 16.25 11.6875 C19 12 19 12 21.3125 14.5 C21.869375 15.325 22.42625 16.15 23 17 C15.67530907 17 8.7581653 10.02363837 3.8125 5.125 C0 1.18563923 0 1.18563923 0 0 Z " fill="#DD603A" transform="translate(488,537)"/>
<path d="M0 0 C0.33 0.66 0.66 1.32 1 2 C0.0625 4.125 0.0625 4.125 -1 6 C-1.66 6 -2.32 6 -3 6 C-3.22945312 6.75539063 -3.45890625 7.51078125 -3.6953125 8.2890625 C-5.2780786 11.57780404 -6.75099069 12.54879871 -9.875 14.375 C-10.73867188 14.89835938 -11.60234375 15.42171875 -12.4921875 15.9609375 C-15.24617909 17.10199943 -16.27765671 17.07627525 -19 16 C-18.21496094 15.43152344 -17.42992187 14.86304688 -16.62109375 14.27734375 C-10.65318435 9.89111341 -5.01215918 5.48866727 0 0 Z " fill="#350903" transform="translate(793,536)"/>
<path d="M0 0 C0.33 0 0.66 0 1 0 C1.24234375 0.845625 1.4846875 1.69125 1.734375 2.5625 C4.00886464 10.26077262 6.5848295 17.0322199 10.75 23.875 C12 26 12 26 12 28 C10.125 27.875 10.125 27.875 8 27 C7.27954236 25.0187415 6.61998741 23.01495907 6 21 C5.34 20.21625 4.68 19.4325 4 18.625 C-0.23123814 13.07149994 -0.24119924 6.75357869 0 0 Z " fill="#3B0B03" transform="translate(471,504)"/>
<path d="M0 0 C6.5611417 5.6863228 6.13504161 11.35041612 7 20 C-1.58 20 -10.16 20 -19 20 C-19 19.67 -19 19.34 -19 19 C-11.08 19 -3.16 19 5 19 C4.67 15.37 4.34 11.74 4 8 C3.01 7.67 2.02 7.34 1 7 C0.67 4.69 0.34 2.38 0 0 Z " fill="#180000" transform="translate(768,362)"/>
<path d="M0 0 C4.97761652 4.81704824 4.97761652 4.81704824 5.0534668 8.82568359 C4.86187522 15.39184541 4.86187522 15.39184541 4.75805664 18.32128906 C4.68802037 20.35985337 4.63356886 22.398443 4.58007812 24.4375 C4.53689453 25.72398437 4.49371094 27.01046875 4.44921875 28.3359375 C4.41143311 29.51720215 4.37364746 30.6984668 4.3347168 31.91552734 C4.02030482 34.81288758 3.50774415 36.5435246 2 39 C1.67 38.34 1.34 37.68 1 37 C1.33 36.01 1.66 35.02 2 34 C2.23449239 30.14998972 2.18518663 26.29389283 2.1875 22.4375 C2.19974609 21.39013672 2.21199219 20.34277344 2.22460938 19.26367188 C2.23703087 12.60160844 1.59323249 6.47132221 0 0 Z " fill="#3B0A03" transform="translate(611,382)"/>
<path d="M0 0 C0.66 0 1.32 0 2 0 C6.89957153 7.84654629 7.85472716 14.8346044 8 24 C7.34 24 6.68 24 6 24 C5.73445312 22.73542969 5.46890625 21.47085937 5.1953125 20.16796875 C4.83887921 18.50774 4.4820898 16.84758767 4.125 15.1875 C3.95097656 14.35412109 3.77695312 13.52074219 3.59765625 12.66210938 C3.33662109 11.45844727 3.33662109 11.45844727 3.0703125 10.23046875 C2.91320801 9.49207764 2.75610352 8.75368652 2.59423828 7.99291992 C2.0205516 5.71252193 2.0205516 5.71252193 0 3 C0 2.01 0 1.02 0 0 Z " fill="#320602" transform="translate(803,284)"/>
<path d="M0 0 C0.99 0.33 1.98 0.66 3 1 C2.54109375 1.72960937 2.0821875 2.45921875 1.609375 3.2109375 C-3.82925714 12.4657527 -6.09988397 21.48445106 -8 32 C-9.32060355 29.81213441 -10.04181361 28.50556455 -9.828125 25.921875 C-9.63734375 25.20515625 -9.4465625 24.4884375 -9.25 23.75 C-8.95222656 22.58404297 -8.95222656 22.58404297 -8.6484375 21.39453125 C-8.43445313 20.60433594 -8.22046875 19.81414062 -8 19 C-7.62305323 17.47964802 -7.24790594 15.95884815 -6.875 14.4375 C-6.58625 13.303125 -6.2975 12.16875 -6 11 C-5.34 11 -4.68 11 -4 11 C-3.896875 10.484375 -3.79375 9.96875 -3.6875 9.4375 C-2.75736134 6.13973565 -1.38604488 3.13366668 0 0 Z " fill="#DB5E35" transform="translate(517,360)"/>
<path d="M0 0 C0.33 0 0.66 0 1 0 C1.15098615 4.68057063 1.13396904 8.87383558 0.0625 13.4375 C-1.66651056 21.15060386 -1.67417212 29.12868434 -2 37 C-2.33 37 -2.66 37 -3 37 C-3.08832196 32.89597283 -3.14083048 28.79219544 -3.1875 24.6875 C-3.21263672 23.53958984 -3.23777344 22.39167969 -3.26367188 21.20898438 C-3.32788247 13.65353819 -2.41795059 7.16480287 0 0 Z " fill="#F2683A" transform="translate(474,291)"/>
<path d="M0 0 C0.33 1.32 0.66 2.64 1 4 C0.34 4 -0.32 4 -1 4 C-1.33 4.99 -1.66 5.98 -2 7 C-3.66666667 7.66666667 -5.33333333 8.33333333 -7 9 C-7.33 9.99 -7.66 10.98 -8 12 C-10.75078884 12.91692961 -12.35948913 13.10886083 -15.1875 13.0625 C-17.0746875 13.0315625 -17.0746875 13.0315625 -19 13 C-16.70806972 11.47204648 -14.78272683 10.41984306 -12.3125 9.3125 C-7.52591916 6.97693272 -3.84363647 3.63918772 0 0 Z " fill="#501407" transform="translate(741,434)"/>
<path d="M0 0 C1.31355469 -0.00128906 2.62710938 -0.00257813 3.98046875 -0.00390625 C4.66254395 -0.00181152 5.34461914 0.0002832 6.04736328 0.00244141 C8.11889023 0.00777664 10.19019866 0.00249493 12.26171875 -0.00390625 C13.57785156 -0.00261719 14.89398437 -0.00132812 16.25 0 C18.04993408 0.00169189 18.04993408 0.00169189 19.88623047 0.00341797 C23.09694635 0.12663878 26.10580464 0.5278817 29.2578125 1.1328125 C29.2578125 1.4628125 29.2578125 1.7928125 29.2578125 2.1328125 C28.4013916 2.12233887 27.5449707 2.11186523 26.66259766 2.10107422 C23.4383242 2.06667616 20.21414532 2.04176135 16.98974609 2.02294922 C15.60299574 2.01298647 14.21626585 1.99941132 12.82958984 1.98193359 C4.76740906 1.88297542 -2.89943553 2.05933381 -10.7421875 4.1328125 C-10.7421875 3.1428125 -10.7421875 2.1528125 -10.7421875 1.1328125 C-7.13756451 0.01006108 -3.7606066 0.00354154 0 0 Z " fill="#C7542C" transform="translate(562.7421875,332.8671875)"/>
<path d="M0 0 C9.57 0.66 19.14 1.32 29 2 C29 2.33 29 2.66 29 3 C19.24041673 4.53091502 9.50216985 4.98107289 0 2 C0 1.34 0 0.68 0 0 Z " fill="#DA5A31" transform="translate(693,472)"/>
<path d="M0 0 C7.90314576 5.0805937 13.42205345 10.42521459 19 18 C18.67 18.66 18.34 19.32 18 20 C14.78634109 18.89184175 14.0085776 18.01470446 12.25 15 C11 12 11 12 11 10 C9.35 9.67 7.7 9.34 6 9 C6 8.34 6 7.68 6 7 C5.38125 6.54625 4.7625 6.0925 4.125 5.625 C1.86557722 3.89720611 1.07249699 2.59186772 0 0 Z " fill="#DA5F31" transform="translate(780,258)"/>
<path d="M0 0 C-6.625 3 -6.625 3 -10 3 C-10 3.66 -10 4.32 -10 5 C-20.37357631 8.44419134 -20.37357631 8.44419134 -26 8 C-26 7.67 -26 7.34 -26 7 C-24.35 7 -22.7 7 -21 7 C-20.67 6.01 -20.34 5.02 -20 4 C-18.099978 3.46666049 -16.19302894 2.94864791 -14.26171875 2.54296875 C-11.9698545 1.992763 -9.92473807 1.21422067 -7.75 0.3125 C-4.06984183 -0.97555536 -3.42183507 -1.1279943 0 0 Z " fill="#DF6236" transform="translate(772,554)"/>
<path d="M0 0 C0.66 0.33 1.32 0.66 2 1 C-2.77827644 6.18295132 -8.79702794 9.67709345 -15.8359375 10.38671875 C-19.24399606 10.3763494 -22.60308921 10.26778567 -26 10 C-26 9.67 -26 9.34 -26 9 C-24.98679687 8.81824219 -23.97359375 8.63648438 -22.9296875 8.44921875 C-21.57803647 8.19578418 -20.22647881 7.94185135 -18.875 7.6875 C-18.20984375 7.56955078 -17.5446875 7.45160156 -16.859375 7.33007812 C-11.30086749 6.26742228 -6.99099498 4.26699681 -2.25 1.25 C-1.5075 0.8375 -0.765 0.425 0 0 Z " fill="#C4522E" transform="translate(750,464)"/>
<path d="M0 0 C0.67417969 0.65226562 1.34835937 1.30453125 2.04296875 1.9765625 C1.19476562 1.81414062 0.3465625 1.65171875 -0.52734375 1.484375 C-8.91238878 0.24285353 -17.60266073 0.63986322 -25.95703125 1.9765625 C-25.95703125 1.3165625 -25.95703125 0.6565625 -25.95703125 -0.0234375 C-18.21100787 -2.55275126 -7.006747 -4.79457721 0 0 Z " fill="#460E03" transform="translate(725.95703125,361.0234375)"/>
<path d="M0 0 C5.41289016 -0.28997626 9.19866488 0.1599195 14.1796875 2.2890625 C16.11560655 3.13561107 16.11560655 3.13561107 18.8125 3.3125 C21 4 21 4 22.8125 7.0625 C23.204375 8.031875 23.59625 9.00125 24 10 C18.95076888 8.05364834 14.12424497 5.69163659 9.25390625 3.33984375 C6.11685547 2.04811696 3.35520093 1.40991143 0 1 C0 0.67 0 0.34 0 0 Z " fill="#CA532C" transform="translate(592,335)"/>
<path d="M0 0 C2.64 0 5.28 0 8 0 C8.33 0.66 8.66 1.32 9 2 C10.89533342 2.46523063 10.89533342 2.46523063 13.0625 2.625 C14.361875 2.74875 15.66125 2.8725 17 3 C17 3.66 17 4.32 17 5 C20.63 5 24.26 5 28 5 C23.59364157 7.93757228 20.06573003 6.88721825 15 6 C9.86408346 4.72344271 4.8592735 3.10568518 0 1 C0 0.67 0 0.34 0 0 Z " fill="#E46133" transform="translate(511,555)"/>
<path d="M0 0 C0.66 0.33 1.32 0.66 2 1 C0.93119777 2.34500955 -0.15562508 3.67571438 -1.25 5 C-1.85328125 5.7425 -2.4565625 6.485 -3.078125 7.25 C-5 9 -5 9 -9 9 C-9.12375 9.5775 -9.2475 10.155 -9.375 10.75 C-10.00648824 13.02335767 -10.88858191 14.9253529 -12 17 C-13 14 -13 14 -12.0625 11.8125 C-11.5365625 10.9153125 -11.5365625 10.9153125 -11 10 C-11.66 9.67 -12.32 9.34 -13 9 C-10.32521756 7.3372974 -8.0004856 6.00016187 -5 5 C-5 4.01 -5 3.02 -5 2 C-2.625 0.9375 -2.625 0.9375 0 0 Z " fill="#F55D26" transform="translate(526,351)"/>
<path d="M0 0 C0.33 0 0.66 0 1 0 C1.01981934 0.62455078 1.03963867 1.24910156 1.06005859 1.89257812 C1.15616932 4.76209381 1.26549487 7.63096547 1.375 10.5 C1.4059375 11.48226563 1.436875 12.46453125 1.46875 13.4765625 C1.70139591 19.29271015 2.4739228 24.39197648 4 30 C4 31.32 4 32.64 4 34 C3.01 33.67 2.02 33.34 1 33 C0.19604975 28.77717482 -0.11811363 24.80386236 -0.09765625 20.5078125 C-0.09443359 19.30898438 -0.09121094 18.11015625 -0.08789062 16.875 C-0.07951172 15.6375 -0.07113281 14.4 -0.0625 13.125 C-0.05798828 11.86429687 -0.05347656 10.60359375 -0.04882812 9.3046875 C-0.0370796 6.20307614 -0.02065167 3.10156275 0 0 Z " fill="#D35A34" transform="translate(507,394)"/>
<path d="M0 0 C-0.60585938 0.20753906 -1.21171875 0.41507812 -1.8359375 0.62890625 C-8.68807616 3.14838493 -14.19518975 6.61074874 -20 11 C-21.13308594 11.84884766 -21.13308594 11.84884766 -22.2890625 12.71484375 C-22.85367188 13.13894531 -23.41828125 13.56304687 -24 14 C-23.69384548 11.14255785 -23.09027701 10.08745585 -21 8.0625 C-6.52635815 -1.88812877 -6.52635815 -1.88812877 0 0 Z " fill="#DA6137" transform="translate(552,337)"/>
<path d="M0 0 C-4.90380156 2.20108003 -9.40388192 4.14488871 -14.8125 4.5 C-18.995864 4.77987294 -20.80920467 6.26503257 -24 9 C-26.13671875 8.6171875 -26.13671875 8.6171875 -28 8 C-22.82559671 4.11919753 -17.95331505 2.18704633 -11.75 0.625 C-11.05261719 0.44549805 -10.35523438 0.26599609 -9.63671875 0.08105469 C-6.151154 -0.74332503 -3.39784721 -1.34863008 0 0 Z " fill="#4B0F04" transform="translate(566,335)"/>
<path d="M0 0 C2.48340903 -0.26727014 4.71472068 -0.34866334 7.1953125 -0.29296875 C8.25647781 -0.28660149 8.25647781 -0.28660149 9.33908081 -0.28010559 C11.60143905 -0.26329547 13.86291048 -0.22564128 16.125 -0.1875 C17.65753923 -0.17245607 19.1900924 -0.15876716 20.72265625 -0.14648438 C24.48211318 -0.11338462 28.24090618 -0.06158825 32 0 C32 0.33 32 0.66 32 1 C22.1 1.33 12.2 1.66 2 2 C1.01 4.31 0.02 6.62 -1 9 C-1.33 9 -1.66 9 -2 9 C-2.25 3.375 -2.25 3.375 0 0 Z " fill="#D85D38" transform="translate(744,423)"/>
<path d="M0 0 C8.21881639 0.51927162 8.21881639 0.51927162 11.4375 2.5 C15.36620299 4.79972858 19.51957139 4.74770402 24 5 C24 5.66 24 6.32 24 7 C15.45717891 7.65714008 6.68539434 5.55524434 0 0 Z " fill="#490F06" transform="translate(680,466)"/>
<path d="M0 0 C2.85475306 -0.08156437 5.70713565 -0.14076372 8.5625 -0.1875 C9.36236328 -0.21263672 10.16222656 -0.23777344 10.98632812 -0.26367188 C19.1023116 -0.36305126 24.45129507 2.3679892 31 7 C30.34 7.66 29.68 8.32 29 9 C29 8.34 29 7.68 29 7 C28.01 7 27.02 7 26 7 C26 6.34 26 5.68 26 5 C17.29650089 2.12295975 9.0988058 1.35609361 0 1 C0 0.67 0 0.34 0 0 Z " fill="#E46338" transform="translate(570,362)"/>
<path d="M0 0 C1.32 0 2.64 0 4 0 C4 0.99 4 1.98 4 3 C4.5775 2.649375 5.155 2.29875 5.75 1.9375 C8.35801776 0.85082593 9.39417629 1.06934867 12 2 C6.25 5 6.25 5 4 5 C4 5.66 4 6.32 4 7 C2.02 7.66 0.04 8.32 -2 9 C-1.67 7.68 -1.34 6.36 -1 5 C-0.34 5 0.32 5 1 5 C0.67 3.35 0.34 1.7 0 0 Z " fill="#E45E31" transform="translate(676,336)"/>
<path d="M0 0 C5.75 -0.125 5.75 -0.125 8 1 C8 2.32 8 3.64 8 5 C10.97 5.495 10.97 5.495 14 6 C14 7.32 14 8.64 14 10 C14.66 10 15.32 10 16 10 C15.67 10.66 15.34 11.32 15 12 C12.87362766 10.37676928 10.74886564 8.7515047 8.625 7.125 C8.02171875 6.66480469 7.4184375 6.20460938 6.796875 5.73046875 C4.41748609 3.90627059 2.12258788 2.12258788 0 0 Z " fill="#4F1507" transform="translate(774,253)"/>
<path d="M0 0 C3.33333333 1.66666667 6.66666667 3.33333333 10 5 C10 5.66 10 6.32 10 7 C10.68707031 7.19335938 11.37414062 7.38671875 12.08203125 7.5859375 C13.43361328 7.97652344 13.43361328 7.97652344 14.8125 8.375 C15.70582031 8.63023437 16.59914063 8.88546875 17.51953125 9.1484375 C20 10 20 10 23 12 C19.05131377 13.31622874 17.64928624 12.30180315 13.875 10.6875 C12.79992187 10.23761719 11.72484375 9.78773438 10.6171875 9.32421875 C8 8 8 8 7 6 C5.34948712 4.88365848 5.34948712 4.88365848 3.4375 3.875 C2.303125 3.25625 1.16875 2.6375 0 2 C0 1.34 0 0.68 0 0 Z " fill="#E26037" transform="translate(670,460)"/>
<path d="M0 0 C7.4071181 0.62272232 14.68194135 1.70487966 22 3 C22 3.33 22 3.66 22 4 C14.53137673 5.04889295 7.84736681 5.69204814 1 2 C0.67 1.34 0.34 0.68 0 0 Z " fill="#410B03" transform="translate(522,560)"/>
<path d="M0 0 C0.33 0 0.66 0 1 0 C1.3457886 5.64788053 0.56064053 9.07569129 -2 14 C-2.99 14.495 -2.99 14.495 -4 15 C-5.03432904 16.98246398 -6.03238392 18.98413316 -7 21 C-7.66 21.99 -8.32 22.98 -9 24 C-9.66 23.67 -10.32 23.34 -11 23 C-10.443125 22.21625 -9.88625 21.4325 -9.3125 20.625 C-5.06505826 14.23116422 -1.786289 7.46993581 0 0 Z " fill="#C4532D" transform="translate(775,429)"/>
<path d="M0 0 C0.66 0 1.32 0 2 0 C1.54218319 3.12841486 0.99225074 6.02348993 0 9.03125 C-1.42291878 13.92083397 -1.45896253 18.87681637 -1.625 23.9375 C-1.66367187 24.90751953 -1.70234375 25.87753906 -1.7421875 26.87695312 C-1.83575076 29.25112076 -1.92149208 31.62529492 -2 34 C-2.33 34 -2.66 34 -3 34 C-3.61916858 10.21122564 -3.61916858 10.21122564 0 0 Z " fill="#5B1709" transform="translate(681,378)"/>
<path d="M0 0 C4.76776866 3.80620187 5.0356736 10.30779556 6 16 C6.19479042 18.73518213 6.16133687 21.25727316 6 24 C3.59723991 20.39585987 3.09059164 16.99286955 2.375 12.8125 C2.2409375 12.06291016 2.106875 11.31332031 1.96875 10.54101562 C1.63954581 8.69512072 1.31893502 6.84769691 1 5 C0.67 5 0.34 5 0 5 C0 3.35 0 1.7 0 0 Z " fill="#D75F34" transform="translate(803,287)"/>
<path d="M0 0 C-0.33589994 3.13506611 -1.02665172 4.025249 -3.375 6.25 C-6 8 -6 8 -9 8 C-9.33 9.65 -9.66 11.3 -10 13 C-11.32 13.33 -12.64 13.66 -14 14 C-12.60259439 9.52989 -10.49641151 7.25194207 -7 4.1875 C-5.6696875 3.00220703 -5.6696875 3.00220703 -4.3125 1.79296875 C-2 0 -2 0 0 0 Z " fill="#D55D30" transform="translate(500,258)"/>
<path d="M0 0 C7.67462965 0.93975057 15.33677447 1.9722497 23 3 C23 3.99 23 4.98 23 6 C15.09290669 5.354523 7.60866033 3.13002861 0 1 C0 0.67 0 0.34 0 0 Z " fill="#400B03" transform="translate(545,468)"/>
<path d="M0 0 C2.71114472 1.02836524 3.82856844 1.70611733 5.3125 4.25 C7.27643074 7.45047973 9.54302648 9.28042151 12.4765625 11.5703125 C14 13 14 13 15 16 C11.86340338 14.57298983 9.37619467 12.85240215 6.75 10.625 C6.04359375 10.03976562 5.3371875 9.45453125 4.609375 8.8515625 C3 7 3 7 3 3 C2.34 3 1.68 3 1 3 C0.67 2.01 0.34 1.02 0 0 Z " fill="#EE6439" transform="translate(545,428)"/>
<path d="M0 0 C3.14575207 -0.05896868 6.2913586 -0.09391603 9.4375 -0.125 C10.75524414 -0.15013672 10.75524414 -0.15013672 12.09960938 -0.17578125 C18.04759738 -0.21967784 23.2381756 0.51118678 29 2 C29 2.33 29 2.66 29 3 C27.02090602 3.02686553 25.04171029 3.04633375 23.0625 3.0625 C21.96035156 3.07410156 20.85820313 3.08570313 19.72265625 3.09765625 C17 3 17 3 16 2 C13.30764224 1.76321284 10.63501844 1.57801975 7.9375 1.4375 C7.17888672 1.39431641 6.42027344 1.35113281 5.63867188 1.30664062 C3.75934562 1.20026367 1.87969756 1.09960066 0 1 C0 0.67 0 0.34 0 0 Z " fill="#300300" transform="translate(704,334)"/>
<path d="M0 0 C1.299375 0.4640625 1.299375 0.4640625 2.625 0.9375 C8.57013265 2.67303562 14.85139382 2.67594031 21 3 C21 3.66 21 4.32 21 5 C15.72 5 10.44 5 5 5 C5 4.34 5 3.68 5 3 C3.35 2.67 1.7 2.34 0 2 C0 1.34 0 0.68 0 0 Z " fill="#340500" transform="translate(699,444)"/>
<path d="M0 0 C2.2053702 2.2053702 3.04275115 4.33676181 4.19921875 7.1953125 C5.03722948 9.21281688 5.03722948 9.21281688 6.75 11.6875 C8 14 8 14 7.875 16.25 C7.441875 17.11625 7.441875 17.11625 7 18 C6.01 18.33 5.02 18.66 4 19 C3.855625 17.9275 3.71125 16.855 3.5625 15.75 C3.16250558 13.08337051 2.72408076 10.58600271 2 8 C1.34 8 0.68 8 0 8 C0 5.36 0 2.72 0 0 Z " fill="#CF562D" transform="translate(652,432)"/>
<path d="M0 0 C-3.03260897 2.02173932 -4.08690037 2.29338438 -7.5625 2.5625 C-10.90657232 2.81460438 -10.90657232 2.81460438 -14 4 C-16.3329866 4.04022391 -18.66706666 4.04320247 -21 4 C-14.34777868 -0.43481421 -7.75289676 -1.57929379 0 0 Z " fill="#E15E2E" transform="translate(536,245)"/>
<path d="M0 0 C-6.71055547 4.21806344 -12.17331554 5.42249707 -20 6 C-18 4 -18 4 -14.875 3.875 C-13.92625 3.91625 -12.9775 3.9575 -12 4 C-12 3.34 -12 2.68 -12 2 C-10.75579353 1.4654744 -9.50429064 0.94791389 -8.25 0.4375 C-7.55390625 0.14746094 -6.8578125 -0.14257812 -6.140625 -0.44140625 C-3.69987216 -1.07831803 -2.3596345 -0.80248831 0 0 Z " fill="#360902" transform="translate(746,467)"/>
<path d="M0 0 C0.33 1.32 0.66 2.64 1 4 C0.443125 4.226875 -0.11375 4.45375 -0.6875 4.6875 C-3.20188609 5.94752819 -3.20188609 5.94752819 -5.25 8.5625 C-8.92805065 11.82259035 -11.17165266 11.75449081 -16 12 C-13.17753826 9.8541558 -10.310676 7.80070866 -7.375 5.8125 C-6.59898437 5.28269531 -5.82296875 4.75289063 -5.0234375 4.20703125 C-3 3 -3 3 -1 3 C-0.67 2.01 -0.34 1.02 0 0 Z " fill="#BF512A" transform="translate(624,456)"/>
<path d="M0 0 C0.33 0 0.66 0 1 0 C1.65714008 8.54282109 -0.44475566 17.31460566 -6 24 C-6.125 18.25 -6.125 18.25 -5 16 C-4.34 16 -3.68 16 -3 16 C-3.04125 15.0925 -3.0825 14.185 -3.125 13.25 C-2.99925462 9.98062003 -2.48366481 8.79278082 -1 6 C-0.61709538 4.00889599 -0.27395385 2.00899487 0 0 Z " fill="#3C0801" transform="translate(642,416)"/>
<path d="M0 0 C1.32 0 2.64 0 4 0 C3.34 1.65 2.68 3.3 2 5 C1.34 5 0.68 5 0 5 C-0.2475 5.721875 -0.495 6.44375 -0.75 7.1875 C-2.10983674 10.24713266 -3.82917754 12.4673738 -6 15 C-5.47731534 12.23723823 -4.89130413 9.6739124 -4 7 C-3.34 7 -2.68 7 -2 7 C-1.34 4.69 -0.68 2.38 0 0 Z " fill="#2D0501" transform="translate(484,267)"/>
<path d="M0 0 C1.9375 0.3125 1.9375 0.3125 4 1 C4.33 1.99 4.66 2.98 5 4 C5.66 4.5775 6.32 5.155 7 5.75 C9.63580622 8.715282 9.70140041 11.11820531 10 15 C9.443125 14.2265625 9.443125 14.2265625 8.875 13.4375 C6.81333663 10.75733762 4.58459238 8.27666828 2.3046875 5.78125 C0.89013953 3.85001085 0.42038779 2.33776625 0 0 Z " fill="#280401" transform="translate(601,367)"/>
<path d="M0 0 C0 0.66 0 1.32 0 2 C-0.66 2 -1.32 2 -2 2 C-2 2.66 -2 3.32 -2 4 C-4.70879335 5.35439668 -7.00933268 5.06501451 -10 5 C-10 5.66 -10 6.32 -10 7 C-12.64 7.33 -15.28 7.66 -18 8 C-17.34 7.34 -16.68 6.68 -16 6 C-14.68 6 -13.36 6 -12 6 C-12 5.34 -12 4.68 -12 4 C-10.3767313 3.3291288 -8.75132422 2.66342971 -7.125 2 C-6.22007812 1.62875 -5.31515625 1.2575 -4.3828125 0.875 C-2 0 -2 0 0 0 Z " fill="#4A1005" transform="translate(774,553)"/>
<path d="M0 0 C6.02770138 0.47587116 10.76678289 3.19722957 16 6 C11.69856646 7.43381118 8.20200866 6.57764946 4 5 C1.4375 2.375 1.4375 2.375 0 0 Z " fill="#E06135" transform="translate(758,247)"/>
<path d="M0 0 C0 0.66 0 1.32 0 2 C-0.66 2 -1.32 2 -2 2 C-2.2475 2.598125 -2.495 3.19625 -2.75 3.8125 C-4 6 -4 6 -6 7.4375 C-8.45285257 9.35379107 -9.05340705 11.0813384 -10 14 C-10.66 14 -11.32 14 -12 14 C-10.70746845 8.25541534 -6.52812197 0 0 0 Z " fill="#4D1307" transform="translate(528,354)"/>
<path d="M0 0 C0.99 0.33 1.98 0.66 3 1 C3 1.66 3 2.32 3 3 C3.8971875 3.37125 3.8971875 3.37125 4.8125 3.75 C7.31626919 5.18072525 8.48072388 6.5691582 10 9 C10 9.66 10 10.32 10 11 C7 11 7 11 4.8125 9.1875 C3 7 3 7 3 4 C2.34 4 1.68 4 1 4 C0.67 2.68 0.34 1.36 0 0 Z " fill="#400D04" transform="translate(757,349)"/>
<path d="M0 0 C4.94833742 -0.49483374 7.86723032 0.68677342 12.09765625 2.9765625 C14.33119539 4.17817904 16.62698672 5.11012002 19 6 C18.34 6.66 17.68 7.32 17 8 C17 7.34 17 6.68 17 6 C15.865625 5.9175 14.73125 5.835 13.5625 5.75 C8.5929304 5.15436286 4.4453348 3.21237727 0 1 C0 0.67 0 0.34 0 0 Z " fill="#360701" transform="translate(592,336)"/>
<path d="M0 0 C0.99 0.33 1.98 0.66 3 1 C-0.13922331 5.52048157 -3.21495828 7.51545911 -8 10 C-8 7 -8 7 -6.35546875 5.140625 C-5.64003906 4.51671875 -4.92460938 3.8928125 -4.1875 3.25 C-3.47980469 2.61578125 -2.77210938 1.9815625 -2.04296875 1.328125 C-1.36878906 0.88984375 -0.69460938 0.4515625 0 0 Z " fill="#2A0600" transform="translate(624,453)"/>
<path d="M0 0 C2.08369901 0.95753798 4.16694547 1.9160608 6.25 2.875 C7.41015625 3.40867187 8.5703125 3.94234375 9.765625 4.4921875 C12.19853869 5.6263719 14.60910636 6.78088096 17 8 C14.375 8.75 14.375 8.75 11 9 C7.8125 7.125 7.8125 7.125 5 5 C4.01 4.67 3.02 4.34 2 4 C2 3.34 2 2.68 2 2 C1.34 2 0.68 2 0 2 C0 1.34 0 0.68 0 0 Z " fill="#3D0A01" transform="translate(505,552)"/>
<path d="M0 0 C0.66 0 1.32 0 2 0 C2 4 2 4 0.5390625 5.6328125 C-0.40839844 6.37144531 -0.40839844 6.37144531 -1.375 7.125 C-2.00148438 7.62257813 -2.62796875 8.12015625 -3.2734375 8.6328125 C-4.12808594 9.30957031 -4.12808594 9.30957031 -5 10 C-5.66 10.66 -6.32 11.32 -7 12 C-6.67 10.02 -6.34 8.04 -6 6 C-5.01 6 -4.02 6 -3 6 C-3 5.01 -3 4.02 -3 3 C-2.34 3 -1.68 3 -1 3 C-0.67 2.01 -0.34 1.02 0 0 Z " fill="#2D0501" transform="translate(553,364)"/>
<path d="M0 0 C7.16707877 0.32577631 12.76927124 3.65443628 19 7 C17.203125 7.609375 17.203125 7.609375 15 8 C13.29431801 7.08155585 11.5921934 6.15141366 9.94921875 5.125 C6.78847852 3.30076516 3.4377584 2.20623102 0 1 C0 0.67 0 0.34 0 0 Z " fill="#340500" transform="translate(733,337)"/>
<path d="M0 0 C-0.33 0.66 -0.66 1.32 -1 2 C-3.5315866 2.63801836 -5.99839502 3.16687368 -8.5625 3.625 C-9.27341797 3.7590625 -9.98433594 3.893125 -10.71679688 4.03125 C-12.47642553 4.36191847 -14.23804548 4.68195767 -16 5 C-16 4.34 -16 3.68 -16 3 C-10.28264895 0.54970669 -6.20970773 -0.33266291 0 0 Z " fill="#300601" transform="translate(534,242)"/>
<path d="M0 0 C4.66283606 3.51582826 7.72210402 6.03648545 9 12 C8.01 11.67 7.02 11.34 6 11 C6 10.34 6 9.68 6 9 C5.34 9 4.68 9 4 9 C3.34 7.02 2.68 5.04 2 3 C1.34 3 0.68 3 0 3 C0 2.01 0 1.02 0 0 Z " fill="#D15B33" transform="translate(601,370)"/>
<path d="M0 0 C2.25 -0.3125 2.25 -0.3125 5 0 C9 4.10810811 9 4.10810811 9 7 C9.66 7 10.32 7 11 7 C11.33 7.99 11.66 8.98 12 10 C9.50638429 8.79618552 7.31856917 7.54571278 5 6 C5 5.34 5 4.68 5 4 C4.360625 3.71125 3.72125 3.4225 3.0625 3.125 C1 2 1 2 0 0 Z " fill="#DB5E33" transform="translate(755,346)"/>
<path d="M0 0 C0.33 0 0.66 0 1 0 C2.73955334 6.43013467 3.24991456 12.34949576 3 19 C-0.01103265 14.48345102 -0.12682381 10.52637619 -0.0625 5.1875 C-0.05347656 4.21167969 -0.04445313 3.23585938 -0.03515625 2.23046875 C-0.02355469 1.49441406 -0.01195312 0.75835937 0 0 Z " fill="#D65E35" transform="translate(471,493)"/>
<path d="M0 0 C0.66 0 1.32 0 2 0 C0.42903279 5.02709507 -2.61993049 9.02866469 -6 13 C-6.33 13 -6.66 13 -7 13 C-7 11.35 -7 9.7 -7 8 C-5.68 7.67 -4.36 7.34 -3 7 C-2.67 5.68 -2.34 4.36 -2 3 C-1.34 3 -0.68 3 0 3 C0 2.01 0 1.02 0 0 Z " fill="#300601" transform="translate(634,440)"/>
<path d="M0 0 C-2.28929053 1.17154293 -4.58118362 2.33738074 -6.875 3.5 C-7.52597656 3.83386719 -8.17695313 4.16773438 -8.84765625 4.51171875 C-13.7734375 7 -13.7734375 7 -16 7 C-16 6.01 -16 5.02 -16 4 C-14.68 4 -13.36 4 -12 4 C-12 3.34 -12 2.68 -12 2 C-10.75579353 1.4654744 -9.50429064 0.94791389 -8.25 0.4375 C-7.55390625 0.14746094 -6.8578125 -0.14257812 -6.140625 -0.44140625 C-3.69987216 -1.07831803 -2.3596345 -0.80248831 0 0 Z " fill="#330600" transform="translate(518,248)"/>
<path d="M0 0 C0.99 0 1.98 0 3 0 C7.09326923 6.45 7.09326923 6.45 6.62109375 9.234375 C6.41613281 9.81703125 6.21117187 10.3996875 6 11 C4.9944239 9.54550599 3.99569565 8.08627557 3 6.625 C2.443125 5.81289063 1.88625 5.00078125 1.3125 4.1640625 C0 2 0 2 0 0 Z " fill="#410C03" transform="translate(515,438)"/>
<path d="M0 0 C1.77586005 3.5517201 2.48627846 5.91767077 3.125 9.75 C3.29257812 10.73484375 3.46015625 11.7196875 3.6328125 12.734375 C3.81457031 13.85585938 3.81457031 13.85585938 4 15 C2.68 14.34 1.36 13.68 0 13 C0 8.71 0 4.42 0 0 Z " fill="#D05631" transform="translate(648,416)"/>
<path d="M0 0 C7 8.44827586 7 8.44827586 7 13 C6.34 13 5.68 13 5 13 C3.45703125 10.91796875 3.45703125 10.91796875 1.8125 8.1875 C0.98685547 6.84751953 0.98685547 6.84751953 0.14453125 5.48046875 C-1 3 -1 3 0 0 Z " fill="#DD6134" transform="translate(768,357)"/>
<path d="M0 0 C0.33 0 0.66 0 1 0 C1.125 5.75 1.125 5.75 0 8 C-0.66 8 -1.32 8 -2 8 C-2.12375 9.134375 -2.2475 10.26875 -2.375 11.4375 C-2.58125 12.613125 -2.7875 13.78875 -3 15 C-3.99 15.495 -3.99 15.495 -5 16 C-4.54762239 14.08191891 -4.08785537 12.16557967 -3.625 10.25 C-3.24214844 8.64898437 -3.24214844 8.64898437 -2.8515625 7.015625 C-2.12466459 4.44147278 -1.2973776 2.32399814 0 0 Z " fill="#4E1106" transform="translate(515,368)"/>
<path d="M0 0 C4.3590077 3.48720616 4.94552183 6.72760915 6 12 C5.34 12 4.68 12 4 12 C4 10.68 4 9.36 4 8 C3.01 7.67 2.02 7.34 1 7 C0.67 4.69 0.34 2.38 0 0 Z " fill="#400D04" transform="translate(768,362)"/>
<path d="M0 0 C2.97 0.495 2.97 0.495 6 1 C6 2.65 6 4.3 6 6 C6.66 6 7.32 6 8 6 C7.67 6.66 7.34 7.32 7 8 C5.82512964 7.24172908 4.66027408 6.46792245 3.5 5.6875 C2.52546875 5.04361328 2.52546875 5.04361328 1.53125 4.38671875 C1.0259375 3.92910156 0.520625 3.47148437 0 3 C0 2.01 0 1.02 0 0 Z " fill="#D55832" transform="translate(687,433)"/>
<path d="M0 0 C0.99 0.495 0.99 0.495 2 1 C2 1.99 2 2.98 2 4 C3.2065625 4.309375 3.2065625 4.309375 4.4375 4.625 C5.283125 5.07875 6.12875 5.5325 7 6 C7.8125 9.125 7.8125 9.125 8 12 C2.00704225 6.16901408 2.00704225 6.16901408 0 3 C0 2.01 0 1.02 0 0 Z " fill="#290500" transform="translate(659,443)"/>
<path d="M0 0 C-0.33 0.99 -0.66 1.98 -1 3 C-3.75078884 3.91692961 -5.35948913 4.10886083 -8.1875 4.0625 C-10.0746875 4.0315625 -10.0746875 4.0315625 -12 4 C-7.82050327 1.21366885 -5.06624674 0 0 0 Z " fill="#451005" transform="translate(734,443)"/>
<path d="M0 0 C2.64752004 2.57784846 4.94432065 4.91648098 7 8 C4.69 7.67 2.38 7.34 0 7 C0 4.69 0 2.38 0 0 Z " fill="#360C04" transform="translate(546,432)"/>
<path d="M0 0 C0.66 0 1.32 0 2 0 C1.50769231 6.4 1.50769231 6.4 -1.0625 9.4375 C-1.701875 9.953125 -2.34125 10.46875 -3 11 C-3 9.35 -3 7.7 -3 6 C-2.34 6 -1.68 6 -1 6 C-0.67 4.02 -0.34 2.04 0 0 Z " fill="#D35C34" transform="translate(610,419)"/>
<path d="M0 0 C0.33 0.66 0.66 1.32 1 2 C1.66 2 2.32 2 3 2 C3 3.98 3 5.96 3 8 C2.01 7.67 1.02 7.34 0 7 C-0.33 7.66 -0.66 8.32 -1 9 C-2.0326802 6.21176345 -2.04509293 5.1322726 -1.0625 2.25 C-0.711875 1.5075 -0.36125 0.765 0 0 Z " fill="#E65C30" transform="translate(740,372)"/>
<path d="M0 0 C0.66 0 1.32 0 2 0 C0.61811547 3.21043882 -0.92421903 5.04936365 -3.625 7.25 C-4.57246094 8.03117188 -4.57246094 8.03117188 -5.5390625 8.828125 C-6.02117188 9.21484375 -6.50328125 9.6015625 -7 10 C-6.29822123 6.76513406 -5.63523506 5.10818805 -3 3 C-2.34 3 -1.68 3 -1 3 C-0.67 2.01 -0.34 1.02 0 0 Z " fill="#DD5E39" transform="translate(792,534)"/>
<path d="M0 0 C0.33 1.32 0.66 2.64 1 4 C0.01 4.33 -0.98 4.66 -2 5 C-2.73323796 7.01508358 -2.73323796 7.01508358 -3 9 C-4.65 9.33 -6.3 9.66 -8 10 C-7.67 9.34 -7.34 8.68 -7 8 C-6.34 8 -5.68 8 -5 8 C-4.731875 7.4225 -4.46375 6.845 -4.1875 6.25 C-2.98280141 3.9674132 -1.59201885 2.0262058 0 0 Z " fill="#531508" transform="translate(608,429)"/>
<path d="M0 0 C1.98 0 3.96 0 6 0 C6 0.66 6 1.32 6 2 C1.82262526 3.59138085 -1.53160785 4.21278058 -6 4 C-6 3.67 -6 3.34 -6 3 C-4.35 3 -2.7 3 -1 3 C-0.67 2.01 -0.34 1.02 0 0 Z " fill="#CF552C" transform="translate(752,558)"/>
<path d="M0 0 C6.4 0.36923077 6.4 0.36923077 9.4375 3.5625 C9.953125 4.366875 10.46875 5.17125 11 6 C7.61121488 6 6.60242783 5.35638802 3.8125 3.5625 C2.73935547 2.88380859 2.73935547 2.88380859 1.64453125 2.19140625 C1.10183594 1.79824219 0.55914062 1.40507813 0 1 C0 0.67 0 0.34 0 0 Z " fill="#D05930" transform="translate(500,548)"/>
<path d="M0 0 C2.64 1.98 5.28 3.96 8 6 C5.13822943 7.43088528 3.06624227 6.59991697 0 6 C0 4.02 0 2.04 0 0 Z " fill="#370902" transform="translate(492,542)"/>
<path d="M0 0 C2.4375 0.8125 2.4375 0.8125 5 2 C5.33 2.99 5.66 3.98 6 5 C6.66 5.33 7.32 5.66 8 6 C7.67 6.99 7.34 7.98 7 9 C4.03595495 6.19195732 1.55500981 3.81684226 0 0 Z " fill="#3A0903" transform="translate(522,449)"/>
<path d="M0 0 C2.46301423 2.46301423 2.76766521 4.27360036 3.625 7.625 C3.88539063 8.62789063 4.14578125 9.63078125 4.4140625 10.6640625 C4.60742188 11.43492187 4.80078125 12.20578125 5 13 C3.5 11.625 3.5 11.625 2 10 C2 9.34 2 8.68 2 8 C1.34 8 0.68 8 0 8 C0 5.36 0 2.72 0 0 Z " fill="#4D1304" transform="translate(539,416)"/>
<path d="M0 0 C0.66 0.33 1.32 0.66 2 1 C0.59447701 2.03612271 -0.82491694 3.05344925 -2.25 4.0625 C-3.43335938 4.91521484 -3.43335938 4.91521484 -4.640625 5.78515625 C-7 7 -7 7 -9.296875 6.68359375 C-9.85890625 6.45800781 -10.4209375 6.23242188 -11 6 C-9.73168307 5.18357746 -8.46024069 4.37200895 -7.1875 3.5625 C-6.47980469 3.11003906 -5.77210938 2.65757812 -5.04296875 2.19140625 C-3 1 -3 1 0 0 Z " fill="#621C0B" transform="translate(549,337)"/>
<path d="M0 0 C2.97550031 3.0684847 3.96474513 4.46236331 4.25 8.8125 C4.1675 9.864375 4.085 10.91625 4 12 C3.34 12 2.68 12 2 12 C0.86235649 7.73383684 0 4.43513689 0 0 Z " fill="#481105" transform="translate(807,296)"/>
<path d="M0 0 C5.62541841 0.45003347 8.61487125 1.68441485 13 5 C11.1875 5.6875 11.1875 5.6875 9 6 C7.97702078 5.02351983 6.98095748 4.01868662 6 3 C2.89992799 1.79950593 2.89992799 1.79950593 0 1 C0 0.67 0 0.34 0 0 Z " fill="#E66337" transform="translate(723,363)"/>
<path d="M0 0 C-1.56020867 0.65134925 -3.12328579 1.29582964 -4.6875 1.9375 C-5.55761719 2.29714844 -6.42773438 2.65679687 -7.32421875 3.02734375 C-9.88179265 3.9570312 -12.3221323 4.54162625 -15 5 C-12.86699672 2.63442627 -11.04050601 1.37032472 -8.0625 0.25 C-7.39347656 -0.01296875 -6.72445312 -0.2759375 -6.03515625 -0.546875 C-3.68352509 -1.07046274 -2.26382477 -0.74954377 0 0 Z " fill="#E6663B" transform="translate(552,337)"/>
<path d="M0 0 C1.32 0 2.64 0 4 0 C5.42944945 2.35438733 6.08661261 3.48032433 5.625 6.25 C5.41875 6.8275 5.2125 7.405 5 8 C0 2.25 0 2.25 0 0 Z " fill="#390902" transform="translate(792,267)"/>
<path d="M0 0 C0.66 0.33 1.32 0.66 2 1 C-0.23795825 4.35693737 -1.2189697 4.91970563 -5 6 C-7.1640625 5.546875 -7.1640625 5.546875 -9 5 C-7.54735962 4.1361871 -6.0876837 3.28419546 -4.625 2.4375 C-3.40683594 1.72400391 -3.40683594 1.72400391 -2.1640625 0.99609375 C-1.44992187 0.66738281 -0.73578125 0.33867187 0 0 Z " fill="#C6562E" transform="translate(513,249)"/>
<path d="M0 0 C0.66 0.33 1.32 0.66 2 1 C-0.23407889 4.35111834 -1.26215824 5.81553956 -5.25 6.8125 C-6.61125 6.9053125 -6.61125 6.9053125 -8 7 C-5.4837822 4.39391727 -2.94865641 2.10618315 0 0 Z " fill="#450D02" transform="translate(782,546)"/>
<path d="M0 0 C0.33 0.66 0.66 1.32 1 2 C-0.73397418 5.65047197 -2.19333016 7.55609075 -6 9 C-4.68775452 5.06326356 -3.08089673 2.77280706 0 0 Z " fill="#C95530" transform="translate(551,370)"/>
<path d="M0 0 C-7.5 5 -7.5 5 -10 5 C-10 3.68 -10 2.36 -10 1 C-6.59437148 0.22157062 -3.49234244 -0.09978121 0 0 Z " fill="#481106" transform="translate(565,362)"/>
<path d="M0 0 C-2.31 2.31 -4.62 4.62 -7 7 C-8 5 -8 5 -7.875 3 C-7 1 -7 1 -4.5625 -0.3125 C-2 -1 -2 -1 0 0 Z " fill="#DF5F32" transform="translate(528,352)"/>
<path d="M0 0 C5.37305699 -0.35233161 5.37305699 -0.35233161 8 0 C10 2 10 2 11 4 C7.0507432 3.44894091 3.65079826 2.61064629 0 1 C0 0.67 0 0.34 0 0 Z " fill="#CB5C31" transform="translate(511,555)"/>
<path d="M0 0 C3.25438355 1.62719177 3.70359632 4.73080811 5 8 C5.33 8.99 5.66 9.98 6 11 C4.68 10.67 3.36 10.34 2 10 C1.34 6.7 0.68 3.4 0 0 Z " fill="#53180A" transform="translate(477,521)"/>
<path d="M0 0 C1.32 0 2.64 0 4 0 C4 0.66 4 1.32 4 2 C5.32 2.66 6.64 3.32 8 4 C8 4.66 8 5.32 8 6 C4.08597051 4.73058503 2.20927127 3.48832306 0 0 Z " fill="#4D1005" transform="translate(530,458)"/>
<path d="M0 0 C0.598125 0.763125 1.19625 1.52625 1.8125 2.3125 C3.46959332 4.3483575 5.10297674 6.1978279 7 8 C5.35 8 3.7 8 2 8 C0.23537317 4.91190305 0 3.76687864 0 0 Z " fill="#D65B34" transform="translate(522,450)"/>
<path d="M0 0 C1.98 0 3.96 0 6 0 C6 1.32 6 2.64 6 4 C4.35 3.67 2.7 3.34 1 3 C0.67 2.01 0.34 1.02 0 0 Z " fill="#E75C32" transform="translate(496,544)"/>
<path d="M0 0 C0.33 0 0.66 0 1 0 C1.08131463 1.43655854 1.13933559 2.8744483 1.1875 4.3125 C1.23970703 5.51326172 1.23970703 5.51326172 1.29296875 6.73828125 C0.93801608 9.47851584 0.10633718 10.29171079 -2 12 C-1.85831863 10.56208484 -1.71148957 9.1246763 -1.5625 7.6875 C-1.48128906 6.88699219 -1.40007813 6.08648437 -1.31640625 5.26171875 C-1 3 -1 3 0 0 Z " fill="#390902" transform="translate(810,496)"/>
<path d="M0 0 C2.64752004 2.57784846 4.94432065 4.91648098 7 8 C5.35 7.67 3.7 7.34 2 7 C1.34 4.69 0.68 2.38 0 0 Z " fill="#C05029" transform="translate(660,448)"/>
<path d="M0 0 C1 3 1 3 0.22265625 4.82421875 C-0.8515625 6.54947917 -1.92578125 8.27473958 -3 10 C-3.66 10 -4.32 10 -5 10 C-3.84414715 6.08788267 -2.64465038 3.1254959 0 0 Z " fill="#440D03" transform="translate(661,358)"/>
<path d="M0 0 C0.33 0 0.66 0 1 0 C1 2.97 1 5.94 1 9 C0.34 9 -0.32 9 -1 9 C-1.33 9.66 -1.66 10.32 -2 11 C-1.85892253 9.54119891 -1.71197585 8.08296449 -1.5625 6.625 C-1.48128906 5.81289063 -1.40007812 5.00078125 -1.31640625 4.1640625 C-1 2 -1 2 0 0 Z " fill="#C4562D" transform="translate(474,291)"/>
<path d="M0 0 C0.66 0.33 1.32 0.66 2 1 C0.8141763 4.37503669 -0.27573689 6.64722731 -3 9 C-3.66 8.67 -4.32 8.34 -5 8 C-4.54625 7.4225 -4.0925 6.845 -3.625 6.25 C-2.15886484 4.2199667 -1.05142216 2.26460157 0 0 Z " fill="#F56531" transform="translate(771,443)"/>
<path d="M0 0 C3.93673644 1.31224548 6.22719294 2.91910327 9 6 C4.58763974 6 3.21615077 3.9302707 0 1 C0 0.67 0 0.34 0 0 Z " fill="#D15937" transform="translate(551,437)"/>
<path d="M0 0 C0.33 0 0.66 0 1 0 C0.67 3.3 0.34 6.6 0 10 C-0.99 9.67 -1.98 9.34 -3 9 C-2.01 6.03 -1.02 3.06 0 0 Z " fill="#D2592E" transform="translate(683,379)"/>
<path d="M0 0 C2.64 0.33 5.28 0.66 8 1 C8 2.32 8 3.64 8 5 C5.04590299 3.62845496 2.55991624 2.01136276 0 0 Z " fill="#5C1A09" transform="translate(728,363)"/>
<path d="M0 0 C1 2 1 2 0.3125 4.5625 C-1 7 -1 7 -3.125 7.8125 C-3.74375 7.874375 -4.3625 7.93625 -5 8 C-3.8141763 4.62496331 -2.72426311 2.35277269 0 0 Z " fill="#B74A26" transform="translate(491,264)"/>
<path d="M0 0 C2.31 0.66 4.62 1.32 7 2 C7.33 3.32 7.66 4.64 8 6 C4.74456771 5.65120368 3.98126893 4.97866739 1.75 2.4375 C1.1725 1.633125 0.595 0.82875 0 0 Z " fill="#2F0903" transform="translate(762,245)"/>
<path d="M0 0 C0 3.25811062 -0.5522078 5.10441559 -2 8 C-2.99 8.33 -3.98 8.66 -5 9 C-3.7508258 5.54074837 -2.32472205 2.85306797 0 0 Z " fill="#2B0400" transform="translate(804,521)"/>
<path d="M0 0 C3.33333333 1.66666667 6.66666667 3.33333333 10 5 C7 6 7 6 5.17578125 5.22265625 C3.45052083 4.1484375 1.72526042 3.07421875 0 2 C0 1.34 0 0.68 0 0 Z " fill="#CD5930" transform="translate(670,460)"/>
<path d="M0 0 C2.475 0.495 2.475 0.495 5 1 C5.33 2.98 5.66 4.96 6 7 C1.125 2.25 1.125 2.25 0 0 Z " fill="#370801" transform="translate(736,367)"/>
<path d="M0 0 C5.75 -0.125 5.75 -0.125 8 1 C7.67 1.99 7.34 2.98 7 4 C4.69 3.01 2.38 2.02 0 1 C0 0.67 0 0.34 0 0 Z " fill="#2F0704" transform="translate(774,253)"/>
<path d="M0 0 C1.65 0 3.3 0 5 0 C3.37660195 1.70884005 1.70680947 3.37446717 0 5 C-0.66 5 -1.32 5 -2 5 C-1.34 3.35 -0.68 1.7 0 0 Z " fill="#DB5D32" transform="translate(780,544)"/>
<path d="M0 0 C3.63 0.66 7.26 1.32 11 2 C11 2.33 11 2.66 11 3 C9.54257537 3.08096803 8.08387193 3.13917774 6.625 3.1875 C5.81289063 3.22230469 5.00078125 3.25710938 4.1640625 3.29296875 C3.44992187 3.19628906 2.73578125 3.09960938 2 3 C1.34 2.01 0.68 1.02 0 0 Z " fill="#BA4E2A" transform="translate(549,470)"/>
<path d="M0 0 C1.32 0.33 2.64 0.66 4 1 C4.33 2.98 4.66 4.96 5 7 C1.18461538 4.53846154 1.18461538 4.53846154 0.25 1.8125 C0.1675 1.214375 0.085 0.61625 0 0 Z " fill="#330A04" transform="translate(601,367)"/>
<path d="M0 0 C1.2380014 3.57644848 0.74926071 6.33694766 0 10 C-2.1519437 6.77208445 -2.20086443 5.71599191 -2 2 C-1.34 2 -0.68 2 0 2 C0 1.34 0 0.68 0 0 Z " fill="#DC6034" transform="translate(473,300)"/>
<path d="M0 0 C0.99 0 1.98 0 3 0 C4.0625 1.75 4.0625 1.75 5 4 C4.67 5.32 4.34 6.64 4 8 C2.68 5.36 1.36 2.72 0 0 Z " fill="#340701" transform="translate(798,275)"/>
<path d="M0 0 C0 0.66 0 1.32 0 2 C-2.95664519 3.4783226 -5.74229737 3.06032783 -9 3 C-4.5 0 -4.5 0 0 0 Z " fill="#C2552C" transform="translate(524,246)"/>
</svg>
